<?xml version="1.0" standalone="no"?>
<!DOCTYPE svg PUBLIC "-//W3C//DTD SVG 20010904//EN"
 "http://www.w3.org/TR/2001/REC-SVG-20010904/DTD/svg10.dtd">
<svg version="1.0" xmlns="http://www.w3.org/2000/svg"
 width="120.000000pt" height="81.000000pt" viewBox="0 0 120.000000 81.000000"
 preserveAspectRatio="xMidYMid meet">

<g transform="translate(0.000000,81.000000) scale(0.100000,-0.100000)"
fill="#FF0000" stroke="none">
<path d="M399 700 l-124 -100 -120 0 c-81 0 -125 -4 -133 -12 -15 -15 -17
-330 -2 -359 10 -17 22 -19 134 -19 l123 0 124 -95 c68 -53 130 -94 139 -93
13 3 15 51 15 388 0 345 -2 385 -16 388 -9 2 -72 -42 -140 -98z"/>
<path d="M877 753 c-17 -16 -3 -42 47 -92 33 -33 66 -78 83 -115 25 -54 28
-72 28 -161 0 -93 -2 -105 -32 -166 -20 -40 -53 -85 -83 -113 -55 -52 -64 -88
-23 -94 31 -5 125 95 164 173 85 174 51 384 -85 520 -50 50 -82 66 -99 48z"/>
<path d="M762 638 c-20 -20 -14 -34 32 -71 87 -72 110 -184 60 -286 -17 -33
-41 -62 -66 -78 -46 -31 -50 -66 -8 -71 37 -4 103 57 137 126 37 76 39 183 4
252 -27 53 -75 106 -113 126 -33 17 -31 17 -46 2z"/>
<path d="M647 523 c-16 -15 -5 -44 23 -58 35 -18 50 -43 50 -82 -1 -32 -14
-51 -52 -76 -31 -20 -35 -38 -13 -57 20 -17 67 3 100 42 51 60 42 152 -20 207
-33 29 -73 40 -88 24z"/>
</g>
</svg>
