<?xml version="1.0" standalone="no"?>
<!DOCTYPE svg PUBLIC "-//W3C//DTD SVG 20010904//EN"
 "http://www.w3.org/TR/2001/REC-SVG-20010904/DTD/svg10.dtd">
<svg version="1.0" xmlns="http://www.w3.org/2000/svg"
 width="136.000000pt" height="137.000000pt" viewBox="0 0 136.000000 137.000000"
 preserveAspectRatio="xMidYMid meet">

<g transform="translate(0.000000,137.000000) scale(0.100000,-0.100000)"
fill="#EEC274" stroke="none">
<path d="M505 1230 c-170 -66 -243 -281 -165 -480 44 -112 143 -226 216 -250
37 -13 40 -22 19 -60 -20 -35 -18 -50 5 -50 12 0 20 -7 20 -17 1 -10 10 -43
21 -73 11 -30 28 -82 38 -115 11 -36 24 -60 32 -60 22 0 14 78 -15 141 -14 30
-28 70 -32 89 -5 31 -4 35 15 35 25 0 26 11 5 56 -9 19 -15 36 -13 37 2 1 22
11 44 22 102 50 201 194 230 332 56 266 -179 486 -420 393z m71 -92 c4 -6 -3
-19 -17 -29 -68 -51 -79 -62 -99 -104 -36 -74 -79 -50 -45 25 37 83 136 149
161 108z"/>
<path d="M977 1004 c13 -76 6 -169 -17 -238 -23 -69 -77 -166 -116 -207 -13
-14 -24 -30 -24 -35 0 -15 71 -79 103 -92 31 -13 33 -22 11 -64 -16 -32 -12
-44 19 -50 17 -3 15 -10 -17 -71 -38 -71 -47 -127 -21 -127 8 0 19 16 24 38 6
20 21 53 32 72 12 19 25 49 29 65 4 20 12 29 22 27 27 -4 30 15 8 54 -12 20
-20 38 -18 39 2 1 22 12 44 23 99 50 184 187 192 309 10 158 -81 276 -232 298
l-48 8 9 -49z"/>
<path d="M211 975 c-59 -54 -85 -115 -85 -206 -1 -68 3 -83 37 -153 41 -83
114 -164 166 -186 34 -14 37 -23 16 -60 -20 -35 -18 -50 5 -50 13 0 22 -9 26
-27 4 -16 19 -49 34 -74 16 -26 30 -57 32 -70 1 -13 10 -24 18 -24 26 0 23 44
-8 98 -42 76 -45 96 -16 103 l23 6 -19 39 c-11 21 -20 40 -20 42 0 2 18 12 40
22 22 10 40 21 40 25 0 4 -11 15 -25 24 -48 31 -115 111 -149 176 -53 102 -69
164 -69 263 0 48 -2 87 -4 87 -1 0 -21 -16 -42 -35z"/>
</g>
</svg>
