<?xml version="1.0" standalone="no"?>
<!DOCTYPE svg PUBLIC "-//W3C//DTD SVG 20010904//EN"
 "http://www.w3.org/TR/2001/REC-SVG-20010904/DTD/svg10.dtd">
<svg version="1.0" xmlns="http://www.w3.org/2000/svg"
 width="512.000000pt" height="512.000000pt" viewBox="0 0 512.000000 512.000000"
 preserveAspectRatio="xMidYMid meet">

<g transform="translate(0.000000,512.000000) scale(0.100000,-0.100000)"
fill="#EEC274" stroke="none">
<path d="M2350 4480 l0 -210 -215 0 -215 0 0 -215 0 -215 215 0 215 0 0 -259
0 -258 -494 -296 c-314 -189 -505 -309 -524 -331 -17 -20 -36 -52 -41 -73 -7
-26 -11 -394 -11 -1115 l0 -1078 425 0 425 0 0 428 c0 235 4 453 10 486 37
230 257 393 481 357 185 -30 329 -173 359 -357 6 -33 10 -251 10 -486 l0 -428
425 0 425 0 0 1078 c0 721 -4 1089 -11 1115 -5 21 -24 53 -41 73 -19 22 -210
142 -524 331 l-494 296 0 258 0 259 215 0 215 0 0 215 0 215 -215 0 -215 0 0
210 0 210 -210 0 -210 0 0 -210z"/>
<path d="M785 2018 c-143 -71 -273 -142 -288 -156 -16 -15 -38 -44 -48 -65
-19 -36 -19 -61 -17 -635 l3 -598 25 -37 c14 -21 43 -50 64 -65 l39 -27 254
-3 253 -3 0 861 c0 682 -3 860 -12 859 -7 0 -130 -59 -273 -131z"/>
<path d="M4050 1290 l0 -861 253 3 254 3 39 27 c21 15 50 44 64 65 l25 37 3
598 c2 574 2 599 -17 635 -10 21 -32 50 -48 65 -26 24 -541 288 -563 288 -7 0
-10 -289 -10 -860z"/>
</g>
</svg>
