<?xml version="1.0" standalone="no"?>
<!DOCTYPE svg PUBLIC "-//W3C//DTD SVG 20010904//EN"
 "http://www.w3.org/TR/2001/REC-SVG-20010904/DTD/svg10.dtd">
<svg version="1.0" xmlns="http://www.w3.org/2000/svg"
 width="364.000000pt" height="361.000000pt" viewBox="0 0 364.000000 361.000000"
 preserveAspectRatio="xMidYMid meet">

<g transform="translate(0.000000,361.000000) scale(0.100000,-0.100000)"
fill="#0dc143" stroke="none">
<path d="M1550 3520 c-8 -5 -27 -10 -42 -10 -33 0 -116 -19 -140 -31 -10 -5
-27 -9 -37 -9 -11 0 -33 -5 -48 -11 -15 -6 -37 -15 -48 -20 -11 -4 -30 -11
-43 -14 -13 -4 -19 -11 -16 -17 5 -7 1 -9 -9 -5 -22 8 -49 -2 -40 -16 3 -6 1
-7 -6 -3 -12 8 -71 -14 -71 -26 0 -5 -8 -8 -18 -8 -10 0 -28 -9 -40 -20 -12
-11 -24 -20 -27 -20 -21 1 -25 -1 -20 -10 4 -6 -5 -10 -19 -10 -14 0 -26 -4
-26 -10 0 -5 -6 -10 -14 -10 -7 0 -26 -12 -42 -27 -16 -16 -42 -34 -57 -42
-15 -8 -27 -20 -27 -27 0 -6 -14 -17 -31 -23 -19 -7 -28 -15 -23 -22 4 -7 3
-9 -4 -6 -14 9 -145 -121 -136 -135 4 -7 3 -8 -5 -4 -6 4 -18 0 -27 -8 -8 -9
-12 -16 -8 -16 4 0 -5 -10 -20 -21 -15 -12 -25 -23 -22 -26 3 -3 -5 -15 -18
-27 -12 -11 -33 -37 -46 -56 -13 -19 -27 -37 -30 -40 -21 -20 -51 -74 -46 -86
3 -8 0 -13 -7 -11 -7 1 -11 -6 -11 -15 1 -10 -2 -15 -7 -13 -9 6 -42 -58 -42
-81 0 -8 -3 -12 -5 -9 -10 10 -73 -138 -67 -156 4 -11 2 -19 -4 -19 -6 0 -14
-12 -17 -27 -4 -16 -10 -32 -14 -38 -7 -10 -11 -23 -31 -115 -5 -25 -15 -67
-21 -95 -7 -30 -11 -152 -11 -305 1 -256 7 -357 24 -374 5 -6 9 -25 9 -42 0
-18 5 -36 10 -39 6 -3 10 -17 10 -30 0 -13 5 -27 10 -30 6 -3 10 -19 10 -35 0
-16 5 -32 10 -35 6 -3 10 -13 10 -21 0 -8 9 -34 20 -56 11 -23 20 -48 20 -55
0 -7 5 -13 10 -13 6 0 10 -9 10 -20 0 -11 5 -20 10 -20 6 0 10 -6 10 -13 0
-18 24 -67 33 -67 4 0 7 -6 7 -14 0 -7 12 -26 27 -41 16 -16 21 -25 13 -21 -9
4 -8 2 3 -7 9 -8 17 -19 17 -26 0 -6 5 -11 11 -11 5 0 8 -4 4 -9 -3 -5 6 -21
20 -35 14 -14 25 -29 25 -34 0 -5 26 -37 58 -70 31 -34 66 -72 77 -84 11 -13
13 -15 5 -4 -12 17 -10 16 12 -3 15 -13 26 -27 24 -30 -2 -3 6 -15 17 -26 11
-11 16 -13 12 -5 -5 8 7 -2 27 -23 19 -20 40 -37 48 -37 7 0 11 -3 7 -6 -9 -9
35 -43 49 -37 7 2 15 -1 20 -8 5 -8 3 -10 -7 -5 -8 4 0 -4 16 -18 17 -15 42
-32 58 -39 15 -6 27 -15 27 -19 0 -5 7 -8 15 -8 8 0 15 -3 15 -8 0 -4 15 -13
33 -21 17 -8 34 -17 37 -20 11 -14 93 -51 111 -51 10 0 19 -3 19 -8 0 -10 56
-34 85 -36 13 0 21 -5 17 -10 -3 -5 4 -7 16 -4 13 4 23 0 26 -8 3 -8 16 -14
30 -14 14 0 27 -4 30 -9 6 -9 49 -18 129 -27 26 -3 47 -10 47 -14 0 -11 108
-20 313 -26 113 -3 167 -2 167 6 0 6 29 10 74 10 41 0 78 4 81 10 3 5 24 10
46 10 21 0 39 5 39 10 0 6 18 10 40 10 22 0 40 5 40 10 0 6 13 10 29 10 17 0
33 4 36 10 3 5 17 10 31 10 13 0 24 5 24 10 0 6 9 10 19 10 11 0 23 5 26 10 3
6 17 10 31 10 13 0 24 5 24 10 0 6 9 10 20 10 11 0 20 5 20 10 0 6 9 10 20 10
11 0 20 5 20 10 0 6 9 10 20 10 11 0 20 5 20 10 0 6 9 10 20 10 11 0 20 5 20
10 0 6 7 10 15 10 8 0 15 5 15 10 0 6 5 10 11 10 9 0 120 71 146 94 6 6 30 27
52 46 51 43 178 168 209 204 12 15 20 32 16 39 -4 7 -4 9 1 5 9 -9 75 60 75
78 0 7 4 14 8 16 12 4 66 87 83 126 8 17 17 32 21 32 5 0 8 5 8 11 0 9 62 148
91 201 5 10 9 25 9 33 0 8 4 23 9 33 14 28 31 87 31 108 0 11 4 24 9 30 10 10
19 66 27 159 3 33 9 69 15 81 7 13 9 80 5 180 -10 321 -55 510 -183 769 -19
39 -40 73 -46 77 -7 4 -9 8 -5 8 7 0 -28 58 -51 86 -5 6 -16 25 -25 42 -9 18
-20 32 -24 32 -4 0 -16 15 -27 32 -10 18 -49 64 -86 103 -37 38 -75 79 -86 90
-10 12 -14 14 -8 5 6 -10 2 -9 -12 4 -13 10 -20 23 -17 27 3 5 -1 9 -8 9 -8 0
-20 9 -28 20 -8 11 -20 20 -27 20 -7 0 -13 5 -13 10 0 6 -7 10 -16 10 -8 0
-12 5 -9 10 3 6 -1 10 -9 10 -9 0 -16 4 -16 8 0 5 -12 15 -27 23 -16 8 -35 22
-44 31 -9 10 -20 18 -23 18 -4 0 -27 14 -51 30 -24 17 -50 30 -58 30 -9 0 -17
3 -19 8 -6 14 -90 52 -115 52 -13 0 -21 4 -18 10 3 6 -3 10 -14 10 -11 0 -23
5 -26 10 -3 6 -15 10 -26 10 -19 0 -28 4 -76 28 -13 7 -36 12 -53 12 -16 0
-30 5 -30 10 0 6 -15 10 -34 10 -19 0 -38 5 -41 10 -3 6 -30 10 -60 10 -30 0
-57 5 -60 10 -8 13 -495 13 -515 0z m485 -579 c11 -5 36 -12 55 -16 19 -3 50
-8 68 -12 18 -3 35 -9 38 -14 3 -5 19 -9 35 -9 18 0 28 -4 24 -10 -4 -6 5 -10
19 -10 14 0 26 -4 26 -10 0 -5 9 -10 20 -10 11 0 20 -3 20 -7 0 -9 48 -33 66
-33 7 0 14 -4 16 -8 3 -7 95 -72 102 -72 2 0 32 -27 66 -60 34 -33 67 -60 73
-60 6 0 8 -3 4 -6 -8 -8 18 -34 33 -34 6 0 8 -4 5 -10 -3 -5 1 -10 9 -10 9 0
15 -3 14 -7 -3 -11 32 -64 56 -85 10 -10 16 -18 12 -18 -4 0 1 -13 11 -30 9
-16 21 -30 25 -30 4 0 8 -7 8 -15 0 -8 4 -15 10 -15 5 0 9 -3 9 -7 -4 -25 2
-43 13 -37 6 4 8 3 5 -3 -3 -5 0 -20 6 -34 11 -21 26 -68 68 -205 5 -17 9 -49
9 -71 0 -23 4 -43 10 -45 14 -5 15 -219 1 -245 -6 -12 -11 -47 -11 -77 0 -31
-4 -56 -10 -56 -5 0 -10 -15 -10 -34 0 -19 -4 -38 -10 -41 -5 -3 -10 -15 -10
-26 0 -10 -6 -28 -12 -39 -11 -17 -10 -22 2 -30 13 -9 13 -10 -1 -10 -15 0
-49 -58 -49 -85 0 -8 -5 -15 -11 -15 -6 0 -8 -7 -5 -16 3 -8 2 -13 -3 -10 -11
7 -52 -69 -43 -80 4 -4 2 -4 -4 -1 -6 3 -17 -6 -25 -21 -13 -26 -67 -88 -134
-154 -16 -17 -29 -35 -27 -40 1 -5 -2 -7 -6 -4 -5 3 -23 -8 -41 -24 -17 -17
-36 -30 -41 -30 -6 0 -8 -5 -5 -10 3 -6 -1 -10 -10 -10 -9 0 -25 -9 -37 -19
-11 -11 -51 -35 -89 -54 -38 -19 -65 -37 -61 -41 4 -4 3 -7 -3 -6 -25 5 -56
-1 -50 -10 4 -6 -6 -10 -24 -10 -16 0 -33 -4 -36 -10 -3 -5 -17 -10 -31 -10
-14 0 -27 -7 -30 -15 -4 -10 -14 -13 -31 -9 -13 4 -34 2 -46 -4 -57 -29 -435
-29 -453 -1 -3 5 -17 9 -31 9 -27 0 -84 16 -115 31 -10 5 -27 9 -38 9 -11 0
-20 5 -20 10 0 6 -11 10 -25 10 -14 0 -25 4 -25 9 0 19 -114 39 -125 21 -3 -5
-19 -10 -36 -10 -16 0 -29 -4 -29 -10 0 -5 -16 -10 -35 -10 -20 0 -38 -6 -41
-13 -3 -8 -16 -12 -33 -9 -16 2 -32 -1 -35 -7 -4 -6 -20 -11 -37 -11 -16 0
-29 -4 -29 -10 0 -5 -16 -10 -35 -10 -19 0 -35 -4 -35 -10 0 -5 -14 -10 -32
-10 -17 0 -40 -7 -50 -16 -16 -16 -18 -16 -24 0 -3 9 -13 16 -21 16 -29 0 -63
47 -63 89 0 22 4 43 10 46 5 3 10 19 10 36 0 16 4 29 8 29 10 0 34 88 27 100
-3 4 2 10 10 14 8 3 15 13 15 23 0 20 20 81 34 101 4 7 5 16 2 19 -3 3 1 18 9
33 22 42 21 81 -3 123 -12 21 -22 44 -22 52 0 8 -4 15 -8 15 -4 0 -16 27 -25
60 -10 33 -21 60 -25 60 -4 0 -8 12 -9 28 -1 15 -7 52 -14 82 -8 35 -13 116
-12 220 1 168 8 247 24 265 5 5 9 19 9 32 0 12 5 35 11 50 6 15 15 37 19 48 5
11 17 41 29 67 12 26 21 52 21 57 0 5 3 11 8 13 4 2 18 23 32 48 13 25 32 54
42 64 10 11 18 24 18 28 0 5 10 19 23 32 72 74 105 115 99 121 -4 5 -2 5 4 2
6 -4 20 5 30 18 10 14 23 25 29 25 6 0 17 9 25 20 8 11 21 20 28 20 8 0 12 6
9 15 -4 8 -1 17 5 21 7 4 8 3 4 -4 -4 -7 -1 -12 8 -12 9 0 16 5 16 10 0 6 6
10 13 10 7 0 22 8 33 18 10 10 34 24 52 31 17 7 32 17 32 22 0 5 11 9 25 9 14
0 25 5 25 10 0 6 7 10 16 10 8 0 22 6 30 14 7 8 23 12 34 9 11 -3 20 0 20 6 0
6 13 11 29 11 17 0 33 5 36 10 3 6 21 10 39 10 19 0 45 6 58 13 28 14 360 13
393 -2z"/>
<path d="M1785 2761 c-11 -4 -47 -9 -80 -10 -33 -1 -64 -7 -69 -12 -6 -5 -25
-9 -42 -9 -18 0 -36 -4 -39 -10 -3 -5 -17 -10 -31 -10 -13 0 -24 -4 -24 -10 0
-5 -11 -10 -25 -10 -14 0 -29 -8 -35 -20 -6 -11 -16 -20 -23 -20 -7 0 -6 4 3
10 8 5 11 10 7 10 -5 0 -21 -8 -35 -18 -15 -10 -40 -24 -56 -32 -16 -8 -45
-29 -63 -46 -18 -17 -33 -29 -33 -26 0 3 -9 -3 -20 -13 -11 -10 -17 -22 -13
-28 3 -5 2 -7 -4 -4 -5 3 -20 -4 -34 -16 -34 -32 -86 -91 -72 -83 6 3 15 1 19
-5 4 -8 3 -9 -4 -5 -7 4 -12 2 -12 -4 0 -6 -4 -9 -8 -6 -9 5 -36 -27 -33 -39
1 -3 -8 -15 -20 -26 -12 -10 -20 -22 -16 -25 3 -3 -3 -14 -14 -25 -11 -11 -22
-33 -26 -49 -3 -17 -9 -30 -14 -30 -5 0 -9 -9 -9 -19 0 -11 -4 -22 -9 -25 -5
-3 -11 -18 -14 -33 -2 -16 -12 -55 -21 -88 -25 -89 -13 -453 15 -471 5 -3 9
-18 9 -35 0 -16 5 -29 10 -29 6 0 10 -9 10 -20 0 -11 4 -20 8 -20 5 0 9 -7 9
-14 0 -19 46 -106 55 -106 5 0 8 -9 8 -20 0 -11 5 -20 11 -20 7 0 9 -11 6 -27
-4 -16 -9 -43 -13 -61 -3 -17 -10 -32 -15 -32 -5 0 -9 -9 -9 -20 0 -10 -5 -32
-11 -47 -30 -73 -49 -135 -49 -155 0 -9 -6 -19 -12 -21 -7 -3 3 -3 22 0 19 3
39 10 45 14 5 5 19 9 32 9 13 0 31 4 41 9 29 15 87 31 110 31 12 0 22 5 22 10
0 6 30 10 70 10 40 0 70 -4 70 -10 0 -5 9 -10 20 -10 11 0 20 -4 20 -10 0 -5
9 -10 20 -10 11 0 20 -4 20 -10 0 -5 11 -10 25 -10 14 0 25 -4 25 -10 0 -5 11
-10 25 -10 14 0 25 -4 25 -10 0 -5 15 -10 33 -10 18 0 37 -4 42 -9 22 -20 310
-40 328 -22 6 6 35 11 64 11 29 0 53 5 53 10 0 6 14 10 30 10 17 0 38 4 48 9
9 5 29 14 45 20 47 19 82 36 87 42 3 3 20 11 38 18 17 8 32 17 32 22 0 5 6 9
13 9 7 0 23 9 35 20 12 11 24 20 27 20 15 0 158 140 150 148 -3 3 8 17 23 32
29 29 60 74 69 103 3 9 9 17 14 17 5 0 9 9 9 20 0 11 4 20 9 20 5 0 11 10 14
23 3 12 17 54 32 92 14 39 24 83 22 100 -2 16 2 35 9 43 17 16 20 287 4 297
-5 3 -10 20 -10 37 0 18 -5 48 -11 67 -27 83 -53 147 -64 156 -6 6 -10 15 -8
22 2 6 -5 17 -16 23 -12 6 -21 16 -21 23 0 7 4 6 10 -3 5 -8 10 -10 10 -4 0 5
-9 20 -20 32 -11 12 -20 25 -20 30 0 5 -18 27 -40 49 -21 22 -36 43 -33 47 4
3 0 6 -8 6 -8 1 -23 15 -34 33 -11 17 -30 36 -42 43 -13 6 -20 14 -16 17 3 4
0 7 -8 7 -8 0 -21 9 -29 20 -8 11 -19 20 -25 20 -6 0 -20 8 -31 18 -28 24 -61
42 -79 42 -8 0 -15 3 -15 8 0 4 -15 13 -32 20 -18 7 -41 18 -50 23 -10 5 -27
9 -37 9 -11 0 -23 5 -26 10 -3 6 -19 10 -34 10 -15 0 -31 4 -36 9 -6 5 -41 12
-80 15 -38 3 -90 7 -115 10 -25 3 -54 2 -65 -3z m-320 -421 c3 -5 15 -10 25
-10 10 0 27 -11 38 -25 11 -13 22 -21 26 -18 3 3 6 -3 6 -15 0 -12 5 -22 10
-22 6 0 10 -9 10 -20 0 -11 3 -20 8 -20 4 0 18 -18 32 -40 14 -22 28 -40 33
-40 4 0 6 -4 2 -9 -3 -5 2 -16 10 -24 21 -21 19 -53 -5 -77 -11 -11 -20 -26
-20 -34 0 -8 -9 -21 -20 -29 -15 -10 -19 -23 -17 -48 2 -19 8 -33 15 -32 7 2
9 -4 5 -14 -5 -13 -2 -15 11 -10 10 4 15 3 11 -3 -9 -14 102 -123 116 -114 8
4 9 3 5 -4 -4 -7 -3 -12 1 -12 5 0 19 -10 33 -23 14 -13 45 -34 70 -48 25 -13
47 -27 50 -31 3 -4 18 -9 32 -12 21 -3 35 3 58 24 19 18 29 34 24 41 -4 8 -3
9 5 5 7 -5 20 1 30 13 21 24 46 26 87 7 16 -8 47 -21 69 -31 22 -9 48 -21 57
-26 10 -5 27 -9 38 -9 11 0 20 -4 20 -10 0 -5 8 -10 18 -10 19 0 58 -65 64
-105 3 -19 -36 -86 -54 -93 -5 -2 -6 -8 -2 -13 3 -5 0 -9 -6 -9 -7 0 -25 -13
-40 -30 -15 -16 -36 -30 -45 -30 -12 0 -16 -6 -12 -19 4 -17 2 -18 -14 -8 -15
9 -23 9 -39 -1 -24 -14 -136 -16 -145 -2 -3 6 -19 10 -36 10 -16 0 -29 5 -29
10 0 6 -9 10 -19 10 -10 0 -45 13 -76 30 -31 16 -61 28 -65 25 -5 -3 -12 0
-16 6 -5 8 -3 9 6 4 9 -5 11 -4 6 3 -4 7 -14 12 -22 12 -8 0 -14 5 -14 10 0 6
-6 10 -14 10 -8 0 -16 4 -18 8 -5 12 -125 92 -138 92 -6 0 -9 4 -6 8 3 5 -6
15 -19 22 -14 7 -25 17 -25 22 0 4 -7 8 -17 8 -9 0 -14 3 -10 6 7 7 -58 74
-73 74 -6 0 -8 5 -5 10 3 6 2 10 -4 10 -6 0 -29 26 -53 58 -23 31 -50 66 -60
76 -10 11 -18 26 -18 33 0 7 -10 13 -22 14 -13 0 -17 3 -11 6 10 3 9 11 -2 33
-31 59 -45 118 -45 188 0 41 4 72 10 72 6 0 10 8 10 18 0 10 6 24 13 31 6 6
12 16 12 20 0 15 84 91 100 91 8 0 15 5 15 10 0 6 9 10 19 10 11 0 23 -4 26
-10z"/>
</g>
</svg>
