<?xml version="1.0" standalone="no"?>
<!DOCTYPE svg PUBLIC "-//W3C//DTD SVG 20010904//EN"
 "http://www.w3.org/TR/2001/REC-SVG-20010904/DTD/svg10.dtd">
<svg version="1.0" xmlns="http://www.w3.org/2000/svg"
 width="508.000000pt" height="336.000000pt" viewBox="0 0 508.000000 336.000000"
 preserveAspectRatio="xMidYMid meet">

<g transform="translate(0.000000,336.000000) scale(0.100000,-0.100000)"
fill="#EEC274" stroke="none">
<path d="M1963 3070 c-112 -26 -250 -174 -352 -378 -50 -100 -133 -297 -172
-412 -32 -93 -60 -237 -84 -430 -21 -172 -21 -171 24 -222 68 -77 165 -116
366 -150 125 -20 617 -17 770 5 387 57 1003 172 1022 190 7 8 -35 397 -62 568
-28 178 -66 363 -90 429 -72 201 -299 342 -530 327 -110 -7 -155 -26 -309
-127 -216 -141 -415 -209 -571 -194 -80 8 -93 13 -100 35 -13 40 9 48 133 48
124 0 142 4 300 69 84 35 237 132 225 142 -16 14 -502 114 -532 109 -3 -1 -20
-4 -38 -9z"/>
<path d="M535 1921 c-115 -52 -240 -302 -274 -545 -29 -206 -3 -358 95 -554
158 -318 267 -419 524 -486 166 -44 243 -50 586 -49 339 2 430 9 541 44 l68
22 285 287 c284 286 390 382 585 528 57 42 103 78 102 78 -1 1 -58 -9 -127
-21 -344 -63 -749 -94 -1002 -76 -303 22 -476 73 -585 174 -84 77 -101 143
-80 317 l7 66 -86 16 c-69 13 -124 34 -273 107 -245 118 -286 129 -366 92z"/>
<path d="M4165 1667 c-231 -50 -431 -120 -577 -202 -44 -25 -83 -45 -85 -45
-3 0 -62 -32 -131 -71 -218 -123 -410 -258 -597 -420 -113 -98 -306 -284 -357
-343 l-33 -40 60 34 c33 18 87 49 120 68 99 58 632 325 750 376 484 210 858
317 1219 346 177 15 244 51 233 129 -10 77 -74 126 -214 161 -125 33 -257 35
-388 7z"/>
</g>
</svg>
