<?xml version="1.0" standalone="no"?>
<!DOCTYPE svg PUBLIC "-//W3C//DTD SVG 20010904//EN"
 "http://www.w3.org/TR/2001/REC-SVG-20010904/DTD/svg10.dtd">
<svg version="1.0" xmlns="http://www.w3.org/2000/svg"
 width="480.000000pt" height="270.000000pt" viewBox="0 0 480.000000 270.000000"
 preserveAspectRatio="xMidYMid meet">

<g transform="translate(0.000000,270.000000) scale(0.100000,-0.100000)"
fill="#000000" stroke="none">
<path d="M2885 2055 c-31 -11 -88 -63 -263 -242 l-222 -228 -213 218 c-251
258 -277 273 -371 227 -57 -28 -86 -74 -86 -136 1 -27 6 -59 13 -71 15 -26 92
-109 289 -308 l149 -151 -225 -231 c-245 -252 -258 -271 -237 -348 21 -74 72
-115 144 -115 26 0 60 6 75 14 15 8 125 113 245 234 l217 219 228 -229 c125
-127 239 -236 254 -244 66 -34 158 -7 198 58 23 37 27 116 8 151 -6 12 -114
127 -239 255 l-229 234 222 228 c122 126 228 241 236 256 19 36 11 117 -15
152 -41 56 -114 79 -178 57z"/>
</g>
</svg>
