<?xml version="1.0" standalone="no"?>
<!DOCTYPE svg PUBLIC "-//W3C//DTD SVG 20010904//EN"
 "http://www.w3.org/TR/2001/REC-SVG-20010904/DTD/svg10.dtd">
<svg version="1.0" xmlns="http://www.w3.org/2000/svg"
 width="119.000000pt" height="81.000000pt" viewBox="0 0 119.000000 81.000000"
 preserveAspectRatio="xMidYMid meet">

<g transform="translate(0.000000,81.000000) scale(0.100000,-0.100000)"
fill="#FF0000" stroke="none">
<path d="M453 748 c-43 -33 -82 -64 -86 -68 -5 -4 27 -29 70 -55 43 -27 88
-55 101 -63 l22 -14 0 125 c0 101 -3 126 -15 131 -9 3 -46 -19 -92 -56z"/>
<path d="M42 770 c-6 -11 -12 -24 -12 -29 0 -5 44 -37 97 -70 l97 -61 -90 0
c-127 0 -124 5 -124 -202 0 -208 -8 -198 156 -198 l119 0 115 -90 c71 -56 123
-89 135 -87 19 2 20 11 23 179 1 99 7 178 12 178 14 0 110 -62 110 -71 0 -5
-6 -9 -14 -9 -17 0 -28 -24 -20 -45 8 -20 39 -19 74 2 26 15 30 15 65 -7 l38
-24 -36 -30 c-40 -34 -45 -47 -22 -66 19 -16 43 -7 83 31 l32 30 42 -25 43
-25 -49 -45 c-51 -48 -58 -79 -19 -84 15 -2 38 11 71 42 27 25 52 46 55 46 4
0 31 -16 61 -35 30 -19 59 -35 64 -35 5 0 15 11 22 25 12 22 12 28 -1 39 -20
19 -1095 686 -1106 686 -4 0 -14 -9 -21 -20z"/>
<path d="M883 763 c-26 -10 -12 -43 40 -95 76 -76 110 -150 115 -252 2 -45 0
-98 -6 -118 -9 -34 -8 -38 15 -54 31 -20 37 -12 53 59 31 144 -15 291 -125
404 -60 62 -67 67 -92 56z"/>
<path d="M755 629 c-5 -16 4 -29 41 -62 56 -49 83 -105 84 -169 0 -40 4 -50
29 -67 l29 -21 6 23 c25 95 -29 236 -113 293 -44 29 -68 30 -76 3z"/>
<path d="M652 528 c-7 -7 -12 -17 -12 -22 1 -11 140 -99 146 -93 1 1 -5 21
-15 43 -25 56 -93 98 -119 72z"/>
</g>
</svg>
