<?xml version="1.0" standalone="no"?>
<!DOCTYPE svg PUBLIC "-//W3C//DTD SVG 20010904//EN"
 "http://www.w3.org/TR/2001/REC-SVG-20010904/DTD/svg10.dtd">
<svg version="1.0" xmlns="http://www.w3.org/2000/svg"
 width="478.000000pt" height="141.000000pt" viewBox="0 0 478.000000 141.000000"
 preserveAspectRatio="xMidYMid meet">

<g transform="translate(0.000000,141.000000) scale(0.100000,-0.100000)"
fill="#EEC274" stroke="none">
<path d="M2308 1208 c-139 -37 -159 -270 -39 -449 l42 -63 -23 -18 c-24 -18
-157 -73 -193 -80 -18 -3 -21 4 -26 57 -8 79 -20 106 -69 159 -36 39 -112 86
-140 86 -6 0 -10 -33 -10 -82 0 -99 19 -148 79 -206 l41 -40 -31 -6 c-17 -3
-67 -6 -110 -6 l-79 0 0 53 c0 75 -25 140 -74 190 -39 41 -131 95 -142 84 -3
-3 -8 -29 -11 -59 -9 -85 17 -158 77 -220 28 -29 50 -54 50 -56 0 -2 -46 -2
-102 0 l-103 3 -1 70 c-2 84 -19 130 -73 187 -39 43 -135 98 -147 85 -4 -3 -7
-40 -7 -81 0 -97 34 -173 99 -219 24 -17 42 -33 39 -35 -2 -2 -58 -1 -124 3
l-121 7 0 72 c0 85 -11 126 -46 178 -40 58 -151 125 -172 104 -3 -4 -6 -40 -6
-79 2 -113 36 -175 134 -239 l45 -30 -60 6 c-33 4 -101 11 -151 17 l-92 11 -4
83 c-5 98 -35 158 -101 206 -47 34 -107 62 -116 54 -3 -3 -5 -38 -6 -78 0 -98
23 -154 87 -212 l50 -45 -63 0 c-41 0 -88 9 -138 26 -87 30 -170 29 -244 -4
-43 -19 -107 -68 -107 -82 0 -4 27 -20 61 -35 110 -49 217 -32 306 49 37 33
45 36 99 35 59 0 59 0 34 -17 -87 -59 -133 -131 -147 -227 -5 -43 -5 -45 20
-45 42 0 136 39 174 73 40 36 83 117 83 160 0 15 7 30 15 33 8 4 68 -2 132
-12 94 -14 114 -19 99 -28 -95 -56 -151 -136 -163 -233 l-6 -52 39 6 c133 20
244 132 244 247 0 25 2 26 53 25 28 -1 79 -4 112 -8 l60 -6 -30 -17 c-72 -39
-129 -129 -142 -224 l-6 -47 44 7 c58 9 127 41 163 74 32 30 76 116 76 149 0
50 7 53 101 53 49 0 89 -3 89 -7 0 -5 -18 -19 -40 -33 -67 -40 -120 -140 -120
-223 0 -29 1 -29 43 -23 62 10 142 52 177 94 32 39 60 110 60 153 0 33 17 39
124 39 l79 0 -45 -40 c-52 -46 -83 -109 -93 -194 l-8 -58 34 7 c141 29 239
137 239 262 l0 51 50 12 c27 7 89 31 136 55 l87 44 31 -23 c45 -34 123 -72
188 -91 l56 -16 11 -61 c22 -124 99 -201 235 -232 l29 -7 -5 63 c-6 77 -36
140 -91 190 l-40 38 101 0 102 0 0 -42 c0 -52 37 -133 76 -170 36 -33 105 -65
163 -74 l44 -7 -6 47 c-15 108 -87 207 -173 237 l-39 13 55 7 c30 4 83 7 118
8 62 1 62 1 62 -27 0 -112 86 -224 196 -255 82 -23 84 -23 84 21 0 98 -80 214
-166 242 -21 7 -43 16 -47 20 -5 4 43 11 105 14 62 4 122 10 134 12 19 5 22 0
27 -45 16 -136 99 -225 231 -250 l46 -8 0 46 c0 57 -35 134 -80 178 -35 34
-108 73 -137 73 -15 1 -16 2 -3 9 14 8 215 31 273 31 22 0 27 -5 27 -25 0 -44
40 -132 77 -170 44 -45 108 -76 166 -78 l41 -2 -2 40 c-2 22 -17 69 -35 105
-25 51 -42 72 -79 95 -26 17 -47 33 -47 38 -1 4 23 7 52 7 47 0 57 -4 83 -31
78 -84 212 -103 323 -48 34 17 60 36 58 43 -7 21 -109 75 -165 87 -63 13 -129
5 -191 -22 -31 -13 -67 -19 -123 -19 l-80 0 43 33 c25 18 55 55 71 86 24 45
28 65 28 132 0 43 -4 80 -8 83 -13 8 -86 -29 -126 -64 -57 -50 -88 -121 -90
-202 l-1 -67 -85 -5 c-47 -4 -105 -9 -130 -11 l-45 -5 38 31 c65 54 90 110 95
211 5 100 2 104 -68 68 -101 -52 -151 -130 -155 -243 -2 -37 -4 -69 -6 -71 -2
-2 -51 -6 -109 -10 l-104 -6 36 37 c20 21 44 54 54 73 21 42 33 193 15 204
-17 11 -95 -28 -136 -69 -47 -48 -76 -111 -82 -185 -5 -55 -7 -58 -36 -64 -16
-3 -57 -6 -90 -6 l-61 0 31 33 c52 53 73 110 73 205 0 82 0 83 -22 76 -119
-36 -198 -140 -198 -261 l0 -63 -121 0 -122 0 47 41 c65 58 88 107 93 199 5
97 -3 110 -54 86 -104 -49 -160 -131 -170 -245 l-6 -69 -51 15 c-50 15 -143
60 -179 88 -18 13 -17 16 22 67 62 82 84 141 89 236 6 105 -10 163 -55 202
-18 17 -44 30 -56 30 -12 0 -31 2 -42 4 -11 3 -37 0 -57 -6z m97 -52 c53 -22
67 -62 63 -170 -4 -100 -21 -148 -83 -221 l-33 -40 -21 25 c-34 41 -80 141
-91 198 -17 94 13 181 73 207 41 18 50 18 92 1z m-1797 -250 c35 -19 85 -72
107 -115 19 -38 33 -151 19 -151 -5 0 -29 34 -53 75 -25 41 -47 73 -49 70 -3
-2 14 -34 37 -71 23 -37 40 -69 37 -72 -6 -5 -73 43 -94 68 -31 36 -52 97 -52
153 0 61 5 65 48 43z m3550 -49 c-8 -91 -53 -168 -120 -203 -40 -21 -41 -19
-4 39 18 28 38 63 45 77 12 24 12 24 -4 5 -9 -11 -30 -44 -47 -72 -16 -29 -34
-56 -39 -59 -5 -3 -9 19 -9 49 0 77 40 151 104 195 72 48 80 45 74 -31z
m-3176 10 c71 -55 108 -125 108 -208 0 -49 -18 -54 -73 -19 -64 40 -98 103
-105 191 -6 82 3 87 70 36z m2828 -9 c0 -56 -15 -107 -43 -149 -23 -35 -106
-103 -114 -95 -3 3 13 35 37 71 23 37 39 69 37 72 -3 2 -25 -28 -49 -69 l-43
-73 -3 45 c-5 63 13 114 56 162 38 43 88 78 110 78 8 0 12 -15 12 -42z m-2504
-20 c68 -46 105 -110 111 -192 l6 -65 -27 3 c-75 9 -156 127 -156 228 0 32 4
58 9 58 5 0 30 -15 57 -32z m627 2 c77 -48 127 -149 115 -231 -2 -20 -11 -12
-51 54 -27 42 -51 77 -53 77 -6 0 12 -34 53 -99 19 -29 32 -55 29 -58 -7 -7
-67 31 -93 59 -37 39 -63 108 -63 171 0 31 4 57 8 57 4 0 29 -13 55 -30z m909
-72 c-14 -75 -51 -131 -109 -165 -54 -31 -68 -22 -65 43 3 84 58 166 137 207
28 15 31 14 39 -4 6 -12 5 -42 -2 -81z m638 53 c0 -53 -23 -123 -53 -163 -23
-30 -107 -88 -107 -74 0 3 18 35 41 72 22 36 38 68 36 71 -3 2 -25 -31 -51
-74 l-46 -77 0 57 c0 68 16 110 60 161 33 37 99 78 113 69 4 -2 7 -21 7 -42z
m-1824 -33 c45 -47 63 -89 71 -158 6 -57 5 -60 -16 -60 -38 0 -109 59 -136
114 -19 37 -25 66 -25 113 l0 63 38 -19 c20 -11 51 -34 68 -53z m1514 16 c0
-26 -5 -64 -12 -85 -20 -67 -104 -149 -153 -149 -11 0 -15 11 -15 43 0 89 43
170 114 212 58 35 66 33 66 -21z m-2730 -171 c25 -6 25 -6 -5 -13 -30 -8 -29
-8 8 -9 44 -1 46 -8 6 -40 -41 -32 -94 -50 -149 -50 -48 0 -131 27 -137 45 -5
15 88 64 139 72 44 8 94 6 138 -5z m4042 -12 c24 -10 52 -26 62 -34 19 -14 18
-15 -20 -35 -86 -44 -173 -40 -250 11 -46 30 -47 32 -23 38 13 4 17 8 9 9 -8
1 -2 8 15 15 45 21 155 19 207 -4z m-3824 -93 c-30 -35 -58 -70 -62 -78 -9
-18 45 39 96 100 34 41 38 43 37 20 -2 -90 -77 -178 -181 -213 -48 -16 -48
-16 -48 6 0 73 53 157 125 198 85 49 95 38 33 -33z m3410 46 c71 -29 132 -107
147 -187 7 -33 5 -37 -14 -37 -30 0 -88 26 -128 56 -37 28 -68 82 -82 143 -8
39 -8 41 15 41 14 0 41 -7 62 -16z m-2989 -43 c12 -8 12 -16 1 -56 -25 -89
-97 -156 -192 -179 -24 -5 -28 -3 -28 15 0 77 63 168 144 205 58 27 56 27 75
15z m2661 -30 c24 -14 57 -44 72 -66 28 -41 57 -129 46 -141 -13 -12 -106 27
-145 61 -44 38 -83 109 -83 152 0 25 5 22 66 -42 52 -55 57 -59 25 -19 -22 28
-47 57 -56 64 -8 7 -15 17 -15 22 0 13 38 1 90 -31z m-1691 10 c20 -13 -3 -99
-38 -148 -26 -35 -96 -82 -148 -98 -20 -6 -23 -3 -23 23 0 82 64 176 144 213
48 22 47 21 65 10z m714 -27 c52 -34 94 -96 108 -160 7 -30 10 -56 7 -59 -10
-10 -96 27 -132 57 -57 47 -106 165 -79 192 11 11 54 -2 96 -30z m-1394 -11
c-66 -72 -74 -89 -10 -24 l63 66 -7 -40 c-15 -84 -65 -148 -145 -184 -63 -29
-80 -27 -80 7 0 86 113 209 195 211 16 1 14 -5 -16 -36z m2014 21 c71 -36 128
-110 142 -187 8 -43 1 -45 -66 -22 -63 23 -104 58 -133 117 -34 69 -35 103 0
106 14 1 40 -5 57 -14z m-1653 -2 c0 -31 -35 -113 -62 -146 -32 -40 -116 -86
-155 -86 -20 0 -22 4 -16 33 15 82 77 162 148 193 34 15 85 18 85 6z m1324
-62 c33 -39 61 -68 64 -65 3 2 -21 34 -52 70 -43 49 -53 65 -39 65 36 0 120
-58 151 -105 29 -43 51 -120 38 -132 -3 -3 -26 0 -51 7 -64 18 -139 87 -159
147 -14 42 -21 83 -13 83 2 0 29 -32 61 -70z"/>
<path d="M1007 722 c15 -28 36 -62 46 -75 12 -13 8 -3 -8 28 -14 28 -35 61
-46 75 -14 17 -12 9 8 -28z"/>
<path d="M1345 675 c15 -27 34 -57 43 -65 8 -8 3 8 -13 35 -15 28 -34 57 -43
65 -8 8 -3 -7 13 -35z"/>
<path d="M2738 693 c-14 -21 -33 -54 -42 -73 -17 -34 -17 -34 1 -13 21 27 76
123 70 123 -2 0 -16 -17 -29 -37z"/>
<path d="M1616 720 c16 -31 86 -140 90 -140 8 0 -49 99 -74 128 -13 15 -20 20
-16 12z"/>
<path d="M3056 667 c-47 -76 -64 -119 -23 -57 37 54 79 130 74 130 -3 0 -26
-33 -51 -73z"/>
<path d="M4037 535 c23 -27 54 -61 69 -75 27 -24 27 -24 -3 15 -17 22 -48 56
-69 75 l-38 35 41 -50z"/>
<path d="M1024 483 c-21 -26 -46 -56 -54 -67 -13 -19 -13 -20 3 -7 27 21 100
111 95 116 -2 3 -22 -16 -44 -42z"/>
<path d="M1994 463 c-21 -26 -46 -56 -54 -67 -13 -19 -13 -20 3 -7 27 21 100
111 95 116 -2 3 -22 -16 -44 -42z"/>
<path d="M2697 475 c17 -22 46 -53 64 -70 29 -27 28 -24 -8 20 -53 64 -101
107 -56 50z"/>
<path d="M3321 495 c0 -5 25 -37 55 -70 31 -33 51 -51 45 -40 -15 28 -100 122
-100 110z"/>
<path d="M1669 453 c-19 -21 -46 -51 -59 -68 l-25 -30 33 30 c33 29 98 105 90
105 -2 0 -20 -17 -39 -37z"/>
<path d="M2320 497 c-43 -15 -75 -71 -65 -116 17 -81 118 -110 176 -52 53 53
34 137 -37 167 -18 8 -35 14 -36 13 -2 0 -19 -5 -38 -12z m81 -30 c20 -15 39
-51 39 -72 0 -26 -55 -75 -85 -75 -36 0 -75 41 -75 80 0 60 76 102 121 67z"/>
</g>
</svg>
