<?xml version="1.0" standalone="no"?>
<!DOCTYPE svg PUBLIC "-//W3C//DTD SVG 20010904//EN"
 "http://www.w3.org/TR/2001/REC-SVG-20010904/DTD/svg10.dtd">
<svg version="1.0" xmlns="http://www.w3.org/2000/svg"
 width="3480.000000pt" height="2160.000000pt" viewBox="0 0 3480.000000 2160.000000"
 preserveAspectRatio="xMidYMid meet">

<g transform="translate(0.000000,2160.000000) scale(0.100000,-0.100000)"
fill="#EEC274" stroke="none">
<path d="M16645 13384 c-237 -12 -463 -39 -600 -70 -140 -32 -251 -67 -292
-90 -59 -34 -145 -133 -166 -191 -35 -98 -47 -312 -32 -548 8 -127 16 -155 41
-155 25 0 93 42 99 60 5 17 111 125 155 158 149 113 286 178 605 288 109 38
469 122 590 139 61 8 155 21 210 29 55 9 181 22 280 31 299 26 316 29 349 79
23 36 21 97 -5 130 -58 73 -271 129 -556 146 -207 12 -367 11 -678 -6z"/>
<path d="M18000 12899 c-183 -13 -234 -24 -455 -97 -81 -26 -184 -71 -215 -92
-14 -9 -46 -25 -72 -35 -39 -14 -48 -22 -48 -41 0 -39 43 -59 121 -56 58 2
412 -38 609 -69 135 -21 390 -89 535 -142 309 -114 535 -263 714 -472 88 -101
171 -215 171 -233 0 -10 33 -42 43 -42 4 0 18 17 32 38 25 37 25 45 34 293 l9
254 -25 43 c-64 112 -359 347 -553 441 -183 89 -426 181 -532 202 -76 14 -235
18 -368 8z"/>
<path d="M20705 12751 c-231 -81 -299 -116 -434 -225 -141 -114 -346 -447
-427 -695 -63 -190 -66 -399 -9 -528 37 -82 100 -169 134 -183 84 -35 207 40
402 245 198 209 260 314 279 475 16 131 29 250 46 410 8 85 20 173 25 195 14
56 77 201 111 256 35 57 37 89 6 89 -13 0 -72 -18 -133 -39z"/>
<path d="M16554 12466 c-175 -43 -308 -128 -490 -311 -192 -193 -274 -323
-315 -502 -19 -82 -21 -113 -16 -241 6 -163 16 -204 54 -221 45 -20 68 6 148
172 86 177 130 253 233 397 95 133 119 159 245 273 237 215 379 289 676 352
63 13 118 28 123 33 5 5 1 19 -10 32 -16 20 -32 24 -118 31 -54 4 -175 8 -269
8 -142 0 -185 -4 -261 -23z"/>
<path d="M17500 12250 c-129 -22 -184 -34 -285 -61 -381 -105 -575 -228 -674
-429 -30 -62 -44 -106 -51 -160 -13 -105 -12 -173 3 -194 12 -17 15 -16 42 12
97 97 486 282 700 332 28 7 91 25 141 40 208 66 486 110 684 110 120 0 150 9
150 43 -1 28 -14 45 -100 132 -86 87 -192 147 -302 169 -79 16 -228 19 -308 6z"/>
<path d="M15585 12140 c-131 -33 -295 -168 -389 -320 -142 -229 -287 -645
-271 -779 13 -116 42 -192 187 -491 45 -91 110 -226 146 -300 82 -171 156
-282 257 -385 83 -84 145 -122 265 -160 76 -24 400 -34 418 -13 15 19 -19 70
-113 168 -86 90 -100 109 -158 226 -79 156 -91 217 -92 449 l0 201 -32 39
c-17 22 -64 72 -103 110 -91 89 -162 185 -200 269 -53 116 -62 274 -24 421 20
76 107 282 173 409 58 112 62 138 26 154 -29 13 -46 14 -90 2z"/>
<path d="M18452 12124 c-46 -32 -30 -74 113 -294 90 -139 137 -222 200 -356
31 -65 61 -128 67 -138 16 -30 66 -182 89 -270 28 -109 31 -362 5 -488 -18
-92 -69 -246 -106 -319 -43 -85 -134 -196 -292 -352 -165 -165 -244 -231 -339
-285 -75 -43 -88 -58 -65 -80 26 -26 520 -25 691 1 260 40 445 122 568 252 89
95 171 269 212 450 25 110 26 134 23 285 -4 163 -5 166 -46 285 -70 199 -99
254 -301 560 -70 105 -117 164 -321 389 -144 160 -249 254 -358 318 -96 57
-112 62 -140 42z"/>
<path d="M13606 11944 c-4 -10 12 -57 38 -113 75 -162 156 -349 156 -361 0
-29 45 -93 83 -117 198 -127 441 -361 496 -477 64 -135 83 -319 48 -469 -26
-108 -40 -121 -127 -114 -36 3 -93 15 -126 27 -78 27 -179 56 -229 65 -22 3
-108 35 -190 70 -271 114 -253 110 -475 110 -224 0 -295 -11 -343 -55 -27 -24
-30 -32 -21 -47 10 -16 28 -18 135 -20 139 -2 293 -28 385 -65 47 -18 63 -31
79 -61 18 -34 19 -39 5 -64 -14 -24 -22 -28 -62 -28 -54 0 -62 -6 -54 -38 10
-42 142 -112 416 -220 156 -62 224 -76 419 -87 173 -10 208 -17 355 -70 72
-26 101 -31 143 -28 62 5 124 43 161 98 34 50 26 120 -23 230 l-38 85 -7 185
c-7 163 -11 195 -35 269 -35 109 -84 214 -127 274 -55 76 -183 176 -322 251
-146 79 -286 205 -414 371 -34 44 -79 103 -101 130 -21 28 -64 92 -96 144 -31
52 -64 105 -73 117 -20 27 -47 31 -56 8z"/>
<path d="M17660 11675 c-228 -22 -419 -104 -394 -169 5 -13 26 -16 123 -16
287 -1 525 -68 661 -187 30 -26 116 -112 189 -190 119 -126 139 -143 166 -143
76 0 124 92 132 250 8 158 -20 255 -101 347 -21 24 -55 51 -75 59 -113 47
-468 72 -701 49z"/>
<path d="M21054 11553 c-38 -34 -76 -84 -184 -238 -88 -126 -237 -284 -348
-369 -35 -26 -122 -83 -195 -126 -155 -92 -209 -136 -248 -205 -53 -91 -69
-166 -69 -321 0 -165 -12 -219 -76 -352 -25 -52 -54 -123 -66 -158 -23 -70
-21 -90 22 -189 26 -60 94 -105 160 -105 44 0 166 42 257 89 70 35 168 52 353
61 219 10 299 33 404 112 103 78 186 158 186 180 0 10 7 48 16 84 20 77 60
118 146 148 29 11 58 23 64 28 7 5 46 15 88 23 41 8 92 21 111 30 32 13 35 17
25 35 -10 18 -20 20 -113 20 -202 -1 -400 -37 -582 -106 -33 -12 -157 -55
-275 -94 -236 -79 -342 -98 -369 -66 -20 23 -35 281 -22 364 11 67 18 85 95
222 81 145 139 208 288 316 51 37 240 145 285 163 35 14 52 46 34 64 -6 6 -32
14 -59 17 -41 4 -47 8 -50 30 -2 16 13 51 41 95 89 143 138 229 143 251 9 34
-23 32 -62 -3z"/>
<path d="M440 11455 c-11 -13 -9 -20 12 -43 52 -55 52 -60 59 -357 3 -155 11
-304 18 -335 64 -294 131 -416 318 -583 123 -110 212 -165 352 -218 l86 -33
435 -6 c307 -5 447 -11 475 -20 51 -16 138 -62 190 -100 122 -90 261 -164 438
-231 258 -99 401 -129 652 -136 211 -6 337 4 612 51 259 44 481 104 908 242
217 71 290 97 445 160 36 14 106 41 155 59 83 31 149 57 265 104 181 75 454
176 550 205 169 51 392 114 590 168 41 11 86 24 99 29 98 39 496 114 891 166
238 32 736 17 1016 -32 284 -48 732 -255 830 -383 40 -52 42 -73 11 -124 -111
-186 -126 -217 -152 -318 -34 -133 -30 -194 20 -295 46 -93 92 -140 157 -160
106 -31 186 -14 263 57 83 76 108 135 113 275 3 74 0 130 -8 161 -24 87 -69
191 -105 241 l-36 50 47 51 c92 99 305 221 524 301 256 94 579 137 930 125
229 -8 479 -24 545 -35 446 -75 455 -76 455 -47 0 7 -17 18 -37 25 -62 20
-295 78 -343 86 -25 4 -65 13 -90 21 -48 14 -197 35 -420 59 -156 17 -518 20
-635 5 -117 -15 -304 -57 -430 -96 -221 -70 -370 -146 -588 -301 -37 -26 -72
-49 -77 -51 -5 -2 -42 25 -82 60 -100 88 -173 135 -308 202 -266 132 -625 226
-960 251 -47 4 -132 13 -190 20 -135 17 -495 -1 -735 -36 -38 -6 -110 -17
-160 -24 -282 -40 -797 -156 -1065 -240 -41 -13 -176 -53 -300 -90 -300 -89
-567 -176 -1065 -347 -126 -43 -277 -94 -335 -112 -295 -93 -453 -140 -530
-156 -47 -11 -143 -33 -215 -50 -262 -63 -370 -81 -547 -92 -166 -11 -183 -10
-290 10 -62 12 -131 24 -153 28 -67 10 -162 43 -345 121 -330 140 -355 160
-483 380 -56 95 -155 323 -173 398 -21 87 -143 306 -222 400 -73 87 -195 175
-304 221 -102 43 -444 167 -553 200 -132 40 -265 82 -350 109 -92 29 -156 32
-175 10z m9620 -1505 c16 -17 43 -65 61 -108 27 -65 33 -93 37 -178 8 -187
-52 -303 -169 -324 -82 -15 -171 31 -198 103 -24 64 -8 199 35 294 13 28 24
55 24 59 0 10 76 112 113 152 38 40 61 40 97 2z"/>
<path d="M34110 11410 c-8 -5 -44 -19 -80 -31 -36 -12 -90 -33 -120 -46 -30
-14 -129 -45 -220 -68 -237 -62 -527 -163 -590 -206 -14 -9 -47 -28 -75 -42
-141 -71 -308 -283 -344 -436 -5 -20 -20 -79 -34 -131 -14 -52 -30 -150 -35
-216 -10 -116 -24 -168 -55 -206 -16 -20 -89 -63 -402 -234 -89 -48 -268 -122
-333 -138 -31 -7 -113 -29 -182 -49 -164 -47 -278 -61 -485 -61 -138 0 -202 5
-340 28 -218 35 -407 78 -570 128 -237 73 -458 133 -660 178 -44 10 -100 26
-125 35 -25 9 -76 23 -115 31 -38 8 -101 25 -140 38 -105 36 -273 87 -336 102
-31 7 -72 22 -90 32 -19 11 -56 25 -84 32 -107 27 -344 92 -435 120 -117 36
-221 63 -368 95 -62 13 -132 30 -155 39 -23 8 -78 22 -122 31 -44 9 -114 27
-156 41 -78 25 -451 82 -714 109 -82 8 -184 20 -225 25 -174 21 -551 4 -630
-28 -14 -6 -83 -23 -153 -37 -270 -56 -665 -221 -860 -359 -34 -24 -84 -53
-110 -65 l-49 -21 -41 26 c-23 14 -82 56 -131 94 -95 74 -431 251 -536 282
-145 43 -333 88 -410 98 -144 17 -389 12 -540 -11 -74 -11 -162 -25 -195 -30
-138 -21 -346 -87 -497 -159 -67 -31 -88 -46 -88 -60 0 -29 29 -26 151 15 219
74 556 117 919 117 367 -1 596 -38 830 -135 192 -80 440 -250 440 -301 0 -12
-17 -39 -37 -61 -87 -96 -132 -203 -140 -325 -5 -79 -3 -90 25 -151 34 -75 75
-114 168 -160 106 -53 170 -49 267 14 62 42 98 111 105 206 7 104 -26 191
-132 349 -31 46 -56 90 -56 98 0 37 135 131 317 222 218 109 374 157 653 203
213 35 727 22 965 -26 39 -7 122 -18 185 -24 63 -5 135 -17 159 -25 24 -9 97
-25 163 -36 66 -12 136 -27 156 -35 42 -16 146 -41 212 -51 25 -3 63 -14 85
-24 23 -10 88 -25 145 -34 58 -8 124 -21 148 -30 24 -8 91 -25 150 -36 59 -11
129 -27 155 -36 51 -17 192 -54 372 -99 61 -14 144 -37 185 -50 41 -13 111
-33 155 -45 44 -11 96 -27 115 -35 19 -8 74 -24 121 -34 47 -11 108 -29 135
-39 27 -11 85 -27 129 -37 44 -10 109 -26 145 -36 36 -10 124 -31 195 -48 72
-16 229 -54 350 -84 229 -57 275 -67 413 -92 45 -8 87 -17 93 -20 27 -17 302
-35 439 -30 150 7 224 20 451 81 70 19 133 34 142 34 25 0 256 79 307 105 27
13 76 34 111 46 34 12 153 62 263 111 l201 88 310 4 c260 4 325 7 407 24 174
36 354 139 500 286 92 92 174 231 227 387 33 96 42 137 53 259 7 80 12 165 11
190 0 25 6 108 15 186 8 77 12 153 8 167 -7 28 -29 35 -56 17z m-9320 -1527
c30 -32 70 -86 88 -121 28 -52 34 -76 39 -150 4 -78 3 -91 -19 -132 -41 -77
-131 -108 -221 -76 -86 31 -138 89 -150 168 -13 86 47 255 117 331 51 54 77
51 146 -20z"/>
<path d="M17004 11322 c-102 -50 -139 -82 -158 -138 -14 -42 -14 -46 4 -64 27
-27 40 -26 139 19 112 50 199 70 343 80 119 8 148 18 148 51 0 45 -148 90
-296 90 -96 0 -104 -2 -180 -38z"/>
<path d="M16197 11314 c-40 -40 -73 -112 -113 -246 l-36 -123 5 -160 c6 -202
34 -322 110 -475 68 -138 78 -154 205 -325 57 -76 247 -271 329 -336 34 -27
110 -72 168 -99 132 -62 226 -79 455 -81 158 -1 169 0 270 31 162 49 327 145
536 311 112 90 150 130 214 225 19 28 58 86 87 128 29 42 61 100 72 129 10 29
28 71 40 93 14 27 24 76 33 162 13 134 9 155 -33 160 -29 3 -67 -31 -159 -143
-194 -238 -434 -443 -590 -505 -52 -21 -165 -49 -290 -72 -87 -16 -230 -3
-400 36 -240 54 -403 123 -541 229 -110 84 -235 278 -292 452 -23 70 -27 99
-29 235 -1 85 2 210 6 278 8 106 7 122 -6 122 -8 0 -27 -12 -41 -26z"/>
<path d="M13345 11315 c-5 -2 -31 -6 -57 -10 -84 -11 -101 -50 -39 -89 48 -30
74 -94 90 -221 9 -65 22 -111 48 -168 32 -69 45 -84 98 -122 126 -90 329 -158
507 -170 87 -6 109 -11 141 -33 21 -14 43 -34 48 -44 11 -21 39 -24 57 -6 28
28 -5 250 -54 364 -103 239 -346 445 -580 489 -67 13 -232 19 -259 10z"/>
<path d="M17736 11235 c-27 -28 -18 -53 42 -118 74 -79 86 -120 80 -260 -4
-94 -8 -110 -47 -197 -32 -70 -60 -114 -108 -167 -63 -71 -87 -91 -185 -154
-48 -31 -59 -54 -36 -77 24 -24 79 -12 176 38 177 91 394 324 448 481 29 85
25 190 -10 262 -42 87 -112 152 -189 175 -99 31 -152 36 -171 17z"/>
<path d="M2762 11163 c-32 -48 -59 -124 -97 -278 -36 -146 -37 -153 -33 -300
4 -136 8 -158 36 -237 85 -244 217 -399 457 -540 67 -40 128 -61 227 -78 57
-10 71 -10 101 5 19 9 42 24 50 33 8 9 35 78 61 154 94 279 85 476 -30 650
-59 89 -182 232 -250 291 -71 60 -198 144 -300 195 -32 17 -81 53 -109 81 -57
59 -84 64 -113 24z"/>
<path d="M31765 11059 c-376 -275 -449 -339 -539 -473 -96 -142 -132 -284
-122 -470 8 -166 42 -263 115 -336 43 -43 56 -51 79 -46 15 3 56 10 91 16 92
16 153 43 262 116 179 119 304 259 347 390 38 112 62 258 62 372 0 167 -48
392 -98 467 -44 64 -66 60 -197 -36z"/>
<path d="M16536 11063 c-7 -16 -21 -63 -31 -105 -16 -72 -16 -81 0 -159 32
-155 127 -310 231 -376 75 -48 164 -74 253 -74 114 0 224 36 203 66 -4 6 -43
21 -87 33 -99 29 -164 67 -247 146 -108 104 -248 348 -248 432 0 63 -48 86
-74 37z"/>
<path d="M21315 11024 c-394 -80 -504 -138 -656 -344 -41 -55 -63 -106 -103
-232 -41 -132 -46 -192 -17 -207 14 -8 43 0 127 38 141 62 241 88 389 101 182
17 214 29 293 108 44 43 81 93 106 140 35 68 37 77 31 135 -4 41 -1 83 9 125
17 75 7 118 -31 133 -24 9 -109 11 -148 3z"/>
<path d="M30424 10838 c-104 -168 -155 -326 -157 -483 0 -66 5 -94 30 -162 51
-136 108 -209 218 -280 88 -57 137 -79 203 -88 l51 -7 48 49 c43 43 52 60 80
153 54 178 56 193 50 308 -6 98 -9 113 -44 180 -67 131 -207 298 -320 383 -80
60 -91 56 -159 -53z"/>
<path d="M16926 10821 c-14 -27 -14 -31 13 -72 15 -24 51 -65 78 -91 42 -39
67 -52 151 -78 96 -31 105 -32 171 -22 121 18 229 85 261 162 27 64 -10 77
-87 30 -56 -34 -164 -55 -232 -45 -62 9 -131 38 -232 96 -48 27 -91 49 -97 49
-7 0 -18 -13 -26 -29z"/>
<path d="M4570 10790 c-180 -18 -427 -128 -560 -247 -98 -88 -166 -237 -181
-396 -10 -107 3 -300 22 -323 18 -22 54 -16 109 18 47 29 59 32 119 30 82 -2
236 22 316 50 233 82 474 314 529 510 8 29 18 85 21 123 3 39 11 99 17 133 9
55 8 66 -5 80 -14 13 -22 14 -57 3 -34 -10 -53 -9 -126 9 -89 21 -98 21 -204
10z"/>
<path d="M14240 9639 c-87 -15 -206 -78 -277 -147 -47 -45 -73 -81 -103 -144
-64 -134 -93 -344 -57 -415 26 -50 37 -54 103 -42 38 7 131 9 264 6 187 -5
213 -4 290 15 99 25 196 81 233 136 75 109 121 254 103 326 -11 46 -83 123
-160 171 -129 80 -276 115 -396 94z"/>
<path d="M1826 9529 c-185 -45 -364 -192 -441 -362 -54 -118 -66 -193 -63
-419 2 -163 5 -209 16 -213 7 -2 34 15 60 39 26 24 56 48 67 53 23 12 197 54
294 73 91 16 234 66 315 108 159 83 327 313 370 505 20 89 25 175 11 187 -6 5
-58 19 -114 30 -142 28 -400 27 -515 -1z"/>
<path d="M32361 9530 c-61 -9 -130 -38 -132 -54 -4 -37 7 -77 40 -149 21 -45
44 -98 51 -117 26 -68 106 -194 155 -245 28 -28 76 -68 109 -89 98 -62 268
-144 362 -173 80 -25 103 -28 222 -26 160 1 175 8 191 83 24 114 5 283 -45
383 -28 57 -115 168 -172 219 -89 80 -230 128 -461 157 -170 22 -230 24 -320
11z"/>
<path d="M19394 9381 c-102 -29 -155 -79 -289 -271 -145 -208 -167 -262 -156
-383 10 -109 40 -171 120 -254 145 -148 444 -233 820 -233 102 0 196 3 209 6
22 6 22 9 22 170 0 355 -45 551 -164 719 -83 115 -197 199 -333 244 -75 25
-147 26 -229 2z"/>
<path d="M16550 9344 c0 -74 174 -234 370 -341 127 -69 160 -76 333 -71 169 5
205 14 309 76 69 40 243 202 251 232 10 40 -17 45 -126 27 -112 -19 -441 -23
-552 -7 -33 5 -103 14 -155 20 -52 7 -166 29 -253 51 -87 21 -163 39 -168 39
-5 0 -9 -12 -9 -26z"/>
<path d="M15253 9315 c-85 -24 -131 -52 -207 -128 -113 -114 -158 -216 -191
-434 -23 -146 -19 -515 6 -554 6 -10 48 -10 226 0 120 7 268 15 328 18 228 10
365 56 468 157 70 69 87 120 94 271 4 96 2 117 -16 164 -66 164 -288 406 -441
480 -87 42 -179 51 -267 26z"/>
<path d="M31599 9268 c-108 -118 -179 -283 -179 -416 0 -157 52 -314 157 -472
51 -77 281 -310 306 -310 13 0 110 112 165 192 42 62 92 214 99 305 10 129
-21 227 -119 374 -66 98 -137 176 -193 212 -67 43 -125 96 -136 124 -13 36
-63 31 -100 -9z"/>
<path d="M2884 9220 c-55 -24 -182 -108 -245 -162 -52 -44 -127 -139 -172
-218 -48 -84 -97 -281 -97 -391 0 -72 42 -236 81 -315 17 -33 51 -84 76 -113
58 -67 169 -151 199 -151 31 0 81 44 106 94 29 57 163 261 204 311 118 144
172 445 118 652 -18 71 -83 197 -133 261 -47 59 -67 64 -137 32z"/>
</g>
</svg>
