<?xml version="1.0" standalone="no"?>
<!DOCTYPE svg PUBLIC "-//W3C//DTD SVG 20010904//EN"
 "http://www.w3.org/TR/2001/REC-SVG-20010904/DTD/svg10.dtd">
<svg version="1.0" xmlns="http://www.w3.org/2000/svg"
 width="640.000000pt" height="640.000000pt" viewBox="0 0 640.000000 640.000000"
 preserveAspectRatio="xMidYMid meet">

<g transform="translate(0.000000,640.000000) scale(0.100000,-0.100000)"
fill="#ffffff" stroke="none">
<path d="M2382 5699 c-96 -16 -163 -64 -177 -127 -5 -24 -12 -29 -65 -39 -77
-14 -121 -42 -160 -100 -44 -68 -61 -133 -67 -263 -5 -108 -3 -123 28 -235 42
-153 46 -276 10 -370 -12 -33 -24 -67 -27 -76 -4 -11 19 -33 83 -76 273 -184
342 -233 328 -233 -21 0 -32 -33 -46 -137 -6 -48 -14 -94 -18 -101 -4 -8 -34
25 -81 90 -132 183 -355 384 -404 365 -11 -5 -89 -130 -131 -211 -5 -11 -71
-69 -145 -128 -74 -60 -152 -126 -173 -146 -111 -106 -150 -256 -167 -637 -5
-115 -21 -295 -34 -400 -54 -410 -79 -843 -54 -927 15 -51 46 -76 232 -183
106 -61 156 -96 156 -107 0 -10 -22 -136 -49 -280 -27 -145 -62 -330 -77 -413
-14 -82 -42 -215 -60 -295 -19 -79 -34 -154 -34 -166 0 -19 13 -24 153 -54 83
-18 155 -35 159 -39 4 -3 10 -68 14 -144 l7 -137 577 0 578 0 11 113 c6 61 17
177 24 257 l12 145 40 3 c22 2 43 6 47 10 4 4 -4 57 -17 117 -13 61 -33 167
-44 235 -11 69 -32 184 -46 255 -15 77 -28 186 -32 268 -3 76 -10 137 -16 137
-5 0 -7 -6 -5 -12 3 -7 -1 -94 -8 -193 -13 -197 -8 -266 26 -321 18 -27 19
-34 7 -34 -9 0 -29 11 -45 25 -19 15 -33 21 -37 15 -45 -73 -63 201 -26 390
23 116 26 195 10 253 -6 23 -7 43 -1 54 8 14 13 10 31 -25 24 -47 34 -54 25
-17 -9 34 6 31 46 -10 19 -19 38 -35 42 -35 20 0 5 43 -27 79 -19 21 -35 41
-35 45 0 3 15 6 33 6 40 0 73 -31 87 -81 17 -60 12 -91 -20 -124 l-31 -31 21
-145 c22 -153 44 -277 51 -283 9 -8 126 16 164 34 81 39 181 65 190 51 2 -4
18 -71 35 -149 l32 -142 -54 -59 c-59 -66 -174 -264 -320 -551 -134 -264 -141
-280 -123 -280 8 0 30 31 50 70 19 38 38 70 40 70 3 0 -8 -27 -25 -60 -16 -33
-30 -64 -30 -70 0 -7 436 -10 1364 -10 1335 0 1364 0 1369 19 2 11 1 23 -4 28
-14 14 29 63 54 63 16 0 18 -3 9 -12 -7 -7 -12 -21 -12 -32 0 -19 1 -19 16 2
11 16 24 22 42 20 22 -2 27 -8 27 -30 0 -34 -16 -38 -31 -8 -7 12 -15 17 -18
12 -3 -6 -2 -13 4 -17 5 -3 10 -10 10 -15 0 -12 -43 -8 -53 5 -5 6 -7 2 -5
-10 3 -18 12 -20 101 -23 63 -3 97 0 97 7 0 22 -24 60 -34 54 -7 -4 -7 -2 0 6
12 13 7 51 -6 51 -4 0 -10 -10 -13 -22 -4 -12 -9 -19 -12 -16 -4 3 -2 15 4 26
14 26 14 52 1 72 -9 13 -12 13 -21 -3 -8 -14 -14 -16 -25 -6 -8 6 -14 8 -14 3
0 -5 -16 -9 -35 -8 -31 1 -39 7 -66 48 l-29 47 22 19 c26 22 34 24 43 10 3 -5
2 -10 -4 -10 -15 0 -32 -36 -25 -54 3 -9 10 -16 15 -16 4 0 6 6 3 14 -6 16 24
56 42 56 7 0 20 15 29 33 15 30 15 33 -5 49 -14 11 -16 18 -8 21 10 3 10 9 1
28 -6 13 -22 53 -35 88 -24 66 -28 69 -99 85 -15 3 -37 15 -50 27 l-24 21 25
-16 c28 -18 40 -20 40 -7 0 5 -10 11 -22 15 -19 5 -20 8 -8 16 13 8 13 13 1
32 -10 18 -10 20 0 10 7 -6 21 -12 31 -12 10 0 18 -8 19 -17 0 -10 5 -5 9 11
5 16 7 32 5 36 -9 15 -65 8 -77 -9 -20 -26 -35 -32 -42 -16 -4 10 3 20 19 27
14 6 25 19 25 28 0 9 6 24 13 34 12 16 14 16 26 2 12 -14 12 -16 -3 -10 -11 4
-16 1 -16 -10 0 -10 8 -16 21 -16 18 0 20 4 14 27 -3 15 -14 33 -23 41 -9 7
-11 11 -4 7 15 -7 15 -4 2 30 -6 15 -15 23 -21 19 -8 -4 -9 3 -4 24 4 20 1 43
-9 64 -8 18 -17 43 -21 56 -7 23 -21 28 -43 13 -11 -7 -10 -9 3 -15 23 -8 10
-25 -15 -19 -11 3 -20 1 -20 -5 0 -6 8 -13 18 -15 9 -3 3 -5 -15 -6 -17 0 -33
-6 -35 -13 -7 -19 -25 0 -32 33 -3 18 -1 38 5 45 9 11 8 14 -1 14 -8 0 -10 3
-7 7 4 3 16 -2 27 -12 15 -14 17 -22 9 -37 -19 -35 -1 -31 35 8 20 22 34 44
32 51 -3 6 0 13 5 15 14 5 -17 90 -38 106 -9 6 -26 12 -38 12 -11 0 -28 9 -38
20 -17 20 -37 19 -37 -1 0 -6 5 -7 11 -3 6 3 15 1 19 -6 9 -14 1 -50 -10 -50
-5 0 -12 -15 -16 -33 -6 -28 -8 -29 -14 -12 -4 11 -6 23 -3 27 2 4 -3 21 -12
37 -18 36 -20 65 -3 55 7 -4 8 -3 4 5 -4 6 -11 9 -16 6 -5 -3 -12 0 -16 6 -3
6 -1 15 6 19 9 6 7 18 -9 51 -16 36 -19 39 -15 14 l6 -30 -16 29 c-21 38 -20
56 4 56 16 0 19 5 16 26 -4 20 -2 24 10 20 9 -3 12 -1 9 4 -3 6 -17 7 -31 4
-19 -5 -23 -3 -18 10 4 11 0 16 -14 16 -11 0 -22 7 -26 15 -3 9 0 15 8 15 7 0
19 7 26 15 11 13 10 14 -3 9 -28 -10 -41 7 -15 20 22 11 40 66 21 66 -4 0 -16
7 -27 15 -17 13 -17 14 3 36 12 13 21 29 21 36 0 7 5 13 10 13 7 0 7 -6 0 -19
-15 -29 -13 -54 5 -47 18 7 20 -10 3 -18 -7 -4 -3 -4 10 -2 12 2 22 0 22 -5 0
-5 4 -9 9 -9 11 0 0 44 -17 76 -6 10 -23 58 -37 107 -14 48 -30 87 -35 87 -5
0 -7 6 -4 14 3 8 1 17 -5 21 -6 3 -11 15 -11 25 0 11 -19 74 -41 140 l-42 120
-34 -20 c-19 -11 -38 -20 -44 -20 -17 0 -9 19 11 25 15 5 20 14 18 38 -3 64
-33 76 -43 17 -4 -22 -11 -40 -17 -40 -6 0 -8 7 -5 15 4 8 2 17 -3 20 -12 7
-13 55 -2 55 5 0 7 13 4 30 -5 38 15 40 29 3 7 -16 13 -23 16 -15 3 6 9 12 14
12 4 0 5 -7 2 -17 -4 -11 -3 -14 5 -9 14 9 15 36 2 56 -8 12 -12 13 -19 1 -7
-11 -12 -10 -29 4 -18 16 -18 19 -4 36 9 10 19 16 24 13 10 -7 9 15 -2 41 -8
18 -9 18 -9 2 -1 -10 -5 -15 -11 -12 -5 3 -12 -6 -16 -20 -5 -18 -10 -23 -17
-16 -7 7 -16 4 -29 -11 l-18 -21 0 22 c0 13 9 26 25 33 29 13 34 32 6 23 -15
-4 -18 0 -18 22 1 16 -1 35 -4 43 -3 10 3 15 21 15 18 0 25 -6 26 -20 2 -56 3
-57 19 -42 13 13 11 24 -11 90 l-25 75 -30 -12 c-17 -7 -29 -17 -27 -22 3 -10
14 -10 42 2 14 5 17 4 12 -5 -5 -7 -18 -16 -30 -21 -17 -7 -17 -9 -3 -9 9 -1
17 -6 17 -12 0 -7 -10 -9 -25 -5 -26 7 -33 -2 -15 -20 14 -14 20 -97 9 -115
-6 -10 -9 -1 -9 27 0 22 -7 64 -16 93 -14 48 -14 55 1 77 9 14 20 22 26 19 6
-4 7 9 3 37 -7 39 -6 42 9 29 20 -16 20 -14 6 30 -7 19 -21 42 -33 52 -11 10
-15 16 -8 12 15 -7 15 5 2 39 -6 17 -17 26 -32 26 -22 1 -22 1 -4 15 17 13 18
18 6 40 -10 18 -16 22 -26 14 -10 -8 -11 -5 -2 19 10 25 9 35 -5 56 -9 14 -17
36 -17 49 0 22 -44 165 -54 174 -2 3 -15 -1 -28 -7 l-23 -11 23 18 23 19 -45
135 c-26 73 -50 143 -55 154 -5 11 -34 99 -65 195 -31 96 -61 183 -66 193 -9
15 -6 17 22 17 30 0 31 -1 12 -15 -26 -20 3 -21 32 -1 17 12 22 12 39 0 45
-33 137 4 135 54 0 4 -5 -1 -11 -11 -13 -22 -77 -49 -101 -41 -25 8 -23 19 7
32 13 6 35 27 47 46 13 19 33 40 46 45 35 16 45 56 26 97 -16 34 -16 34 13 61
16 16 32 35 36 43 5 13 7 13 16 0 15 -22 13 -56 -4 -70 -8 -7 -15 -18 -15 -24
1 -18 50 43 50 62 0 9 -6 28 -13 42 -11 21 -11 32 0 64 30 87 7 169 -58 215
-35 23 -38 30 -39 71 0 52 -28 105 -64 121 -13 7 -38 31 -55 54 -68 94 -171
143 -261 124 -108 -23 -252 -133 -210 -159 7 -5 19 -6 27 -3 7 3 13 -2 13 -11
0 -17 16 -22 22 -7 4 11 48 -5 48 -19 0 -6 -7 -6 -20 2 -25 16 -37 4 -17 -17
9 -8 14 -22 11 -30 -4 -9 0 -15 10 -15 10 0 16 -8 15 -22 0 -13 -3 -17 -6 -10
-8 19 -23 14 -23 -8 0 -24 -13 -26 -30 -5 -15 19 -23 14 -14 -9 4 -10 17 -16
36 -16 17 0 28 -5 27 -12 -1 -7 -1 -20 0 -28 1 -13 3 -12 11 2 13 21 50 12 50
-13 0 -10 8 -23 19 -28 23 -13 35 -51 15 -51 -8 0 -14 -8 -15 -17 0 -10 -8
-31 -18 -48 -13 -23 -15 -34 -7 -52 6 -13 18 -23 27 -23 8 0 20 -5 27 -12 7
-7 12 -8 12 -2 0 18 43 32 68 23 12 -5 22 -11 22 -15 0 -3 -7 -4 -15 0 -10 3
-15 -1 -16 -12 0 -10 -3 -12 -6 -4 -7 17 -30 15 -41 -4 -5 -9 -12 -14 -17 -12
-4 1 -9 -9 -11 -24 -3 -28 10 -38 19 -15 3 7 6 7 6 1 1 -6 -8 -19 -20 -30 -20
-18 -21 -18 -39 6 l-19 25 2 -29 c3 -36 -24 -56 -48 -36 -13 11 -13 15 -3 22
8 6 1 8 -21 4 -28 -5 -32 -3 -27 10 5 13 1 15 -18 10 -27 -7 -49 13 -40 37 3
8 1 18 -5 22 -6 3 -11 11 -11 17 0 6 8 3 19 -6 17 -15 19 -15 25 -1 9 23 8 25
-9 25 -8 0 -15 5 -15 11 0 6 6 9 13 6 8 -3 20 -1 28 4 11 8 5 17 -28 47 -24
21 -43 46 -43 56 0 12 -5 16 -15 12 -9 -3 -18 1 -22 10 -3 8 -12 13 -20 10 -8
-3 -11 -1 -8 4 3 6 17 7 31 4 19 -5 23 -3 18 9 -3 8 -1 18 5 22 18 11 12 28
-7 23 -10 -3 -27 1 -37 8 -16 12 -17 18 -7 39 15 32 15 38 2 30 -5 -3 -10 2
-10 11 0 13 -3 15 -11 7 -8 -8 -8 -17 0 -32 10 -17 9 -20 -4 -15 -8 4 -15 10
-15 14 0 4 -9 10 -20 13 -13 3 -20 14 -20 28 0 22 0 22 14 3 12 -15 17 -17 27
-6 15 14 49 16 49 2 0 -5 9 -10 20 -10 27 0 25 18 -2 30 -13 5 -19 9 -14 9 5
1 3 8 -4 17 -8 8 -9 14 -4 13 27 -5 24 4 -9 35 -36 32 -37 33 -94 24 -32 -5
-62 -10 -68 -12 -5 -2 -39 8 -75 22 -124 47 -235 29 -270 -45 -11 -24 -24 -33
-50 -38 -53 -10 -108 -45 -132 -83 -55 -89 -53 -220 4 -238 24 -7 26 -82 3
-91 -14 -5 -14 -7 0 -24 11 -12 14 -25 10 -41 -9 -28 -69 -92 -112 -119 -42
-26 -42 -47 -1 -80 30 -25 31 -29 20 -54 -9 -19 -10 -31 -3 -38 5 -5 7 -23 4
-38 -3 -16 0 -35 6 -43 9 -11 9 -25 1 -55 -22 -81 11 -101 166 -101 140 0 138
2 196 -200 51 -182 68 -263 62 -298 -4 -20 -26 -54 -56 -87 -34 -37 -53 -70
-64 -107 -13 -45 -30 -67 -106 -144 -74 -76 -98 -94 -143 -108 -103 -32 -194
-142 -216 -262 -8 -45 -8 -59 3 -65 11 -7 10 -11 -2 -19 -25 -16 -50 -12 -50
9 0 11 -10 22 -22 25 -21 7 -21 8 -5 15 15 6 16 9 5 17 -21 17 -48 24 -48 14
0 -6 -7 -10 -15 -10 -18 0 -20 17 -2 23 8 3 7 10 -7 26 -19 21 -19 21 -38 2
-20 -22 -15 -81 7 -81 7 0 20 -10 28 -22 13 -19 16 -20 16 -5 1 26 21 21 21
-6 0 -28 22 -77 34 -77 5 0 3 -7 -4 -15 -6 -8 -9 -19 -5 -24 7 -13 -39 -25
-61 -17 -9 3 -18 15 -21 25 -5 19 -36 34 -47 23 -3 -3 -6 -14 -6 -24 0 -10 -4
-18 -10 -18 -6 0 -8 -16 -4 -37 8 -57 11 -62 33 -56 12 3 29 -1 38 -8 15 -12
16 -12 10 3 -8 23 10 33 30 16 15 -11 16 -11 9 7 -4 11 -4 16 0 13 3 -4 21 4
39 18 26 20 34 22 37 10 2 -12 7 -11 27 5 18 15 21 22 12 33 -9 10 -8 15 3 19
9 4 18 2 21 -4 4 -5 10 -7 14 -5 4 3 21 -8 36 -24 23 -24 25 -30 12 -30 -21 0
-21 -9 -2 -34 34 -45 5 -126 -45 -126 -24 0 -25 -6 -5 -27 8 -8 12 -20 8 -26
-4 -7 -6 -20 -5 -29 2 -10 -1 -18 -6 -18 -6 0 -8 -8 -5 -18 5 -22 -9 -35 -56
-51 -26 -8 -37 -8 -49 2 -8 6 -23 11 -32 9 -10 -2 -20 4 -24 13 -3 9 -11 13
-16 10 -6 -4 -17 -2 -25 5 -9 7 -15 8 -20 0 -3 -5 1 -13 9 -16 9 -3 16 -13 16
-21 0 -9 -6 -13 -15 -9 -10 3 -14 -1 -13 -12 4 -48 -16 -62 -86 -63 -31 0 -43
19 -21 35 18 13 18 14 -3 25 -13 7 -22 23 -24 43 -3 35 -28 52 -28 19 0 -11
-9 -26 -20 -33 -11 -7 -20 -23 -20 -34 0 -23 -63 -69 -80 -59 -4 3 -13 -2 -20
-10 -7 -8 -23 -15 -36 -15 -19 0 -26 7 -30 29 -4 17 -14 31 -25 34 -10 3 -19
12 -19 20 0 8 -9 17 -20 20 -12 3 -20 14 -20 26 0 12 -6 21 -15 21 -17 0 -20
-16 -5 -25 31 -19 -5 -75 -49 -75 -15 0 -32 -5 -39 -12 -8 -8 -15 -8 -25 0 -7
6 -23 9 -34 6 -17 -5 -22 -1 -25 18 -2 19 -9 23 -37 23 -23 0 -37 6 -45 20 -6
11 -17 24 -24 29 -10 5 -12 19 -7 42 5 30 3 34 -16 34 -17 0 -19 -3 -10 -14 8
-10 6 -19 -10 -40 -25 -31 -45 -25 -24 8 8 12 12 26 8 30 -4 3 4 14 17 23 20
14 21 17 7 28 -18 13 -21 91 -4 112 6 9 5 19 -4 29 -11 14 -11 18 4 29 21 15
22 25 2 25 -17 0 -20 16 -4 26 18 11 33 -14 31 -51 -2 -19 2 -35 7 -35 6 0 8
6 5 13 -6 18 21 41 40 34 9 -4 17 2 21 13 7 23 -9 58 -19 42 -8 -13 -33 -6
-58 16 -12 10 -16 23 -11 40 5 21 3 23 -16 17 -16 -5 -23 -1 -33 19 -17 38 -2
44 30 13 35 -34 44 -34 36 -2 -7 29 11 56 32 48 8 -3 14 1 14 11 0 19 21 21
38 4 9 -9 15 -8 25 7 10 12 16 14 21 7 4 -7 19 -9 37 -5 23 4 36 0 56 -18 23
-21 25 -22 15 -3 -6 11 -9 33 -7 50 1 16 -1 32 -6 35 -6 3 -6 16 0 32 8 19 18
27 35 27 14 0 28 4 31 10 8 14 42 13 47 -1 2 -7 9 -5 17 5 12 14 11 16 -5 16
-14 0 -15 3 -6 12 10 10 17 7 35 -10 22 -23 20 -29 -18 -46 -6 -3 -4 -9 5 -15
10 -7 19 -6 32 5 15 14 18 14 29 -4 16 -25 52 -18 44 9 -8 23 19 36 39 20 11
-9 15 -8 20 5 4 11 14 15 31 12 14 -3 25 -1 25 3 0 5 7 9 15 9 8 0 15 -4 15
-8 0 -4 12 -9 27 -10 15 -1 29 -6 33 -11 9 -15 60 -25 60 -12 0 6 -4 11 -9 11
-4 0 -11 66 -15 148 -6 129 -31 357 -52 476 l-7 39 29 -7 c16 -4 42 -16 57
-27 16 -12 31 -19 33 -16 2 2 -1 27 -7 56 -8 37 -8 60 0 82 6 17 8 35 5 40 -8
14 -58 11 -97 -6 -48 -20 -67 -19 -67 4 0 25 14 35 85 62 54 20 58 23 37 32
-28 13 -28 22 3 59 32 38 23 52 -31 45 -40 -4 -44 -3 -44 18 0 22 -28 55 -48
55 -6 0 -21 -14 -35 -31 l-24 -31 -71 140 -72 139 20 56 c12 34 20 82 20 122
0 57 -2 65 -19 65 -11 0 -39 -22 -63 -50 l-43 -49 -39 47 c-22 26 -33 41 -26
35 21 -19 30 -16 30 10 0 30 46 126 64 133 8 3 37 -6 64 -20 74 -37 129 -48
163 -31 26 14 49 59 49 95 0 9 11 27 25 40 14 13 25 29 25 36 0 7 8 18 19 23
10 6 21 24 24 41 6 30 7 30 64 28 l58 -3 3 40 c2 22 -6 85 -16 140 l-20 99 28
26 c24 22 28 36 34 105 4 44 10 95 13 114 5 32 7 33 40 28 19 -4 40 -1 46 4 7
6 27 19 45 30 40 23 72 88 72 144 0 53 -19 85 -21 35 -1 -20 -3 -26 -6 -15
-19 85 -38 130 -70 165 -33 37 -64 55 -47 28 5 -8 2 -9 -12 -3 -10 4 -32 10
-49 13 -28 5 -29 4 -15 -14 14 -18 14 -18 -10 -3 -14 9 -41 32 -61 51 -23 21
-59 41 -98 53 -34 10 -61 24 -61 31 0 8 -48 29 -122 53 -68 22 -112 40 -98 40
19 1 21 4 10 10 -25 14 -122 20 -178 10z m782 -563 c-8 -20 -66 -46 -101 -45
l-28 1 32 8 c17 4 46 16 65 28 18 11 34 21 35 21 1 1 0 -5 -3 -13z m1241 -146
c18 -8 18 -9 -5 -8 -14 0 -36 4 -50 8 -24 8 -24 8 5 8 17 0 39 -3 50 -8z m45
-47 l25 -14 -25 6 c-14 4 -54 9 -90 12 -47 4 -60 8 -45 14 26 11 103 1 135
-18z m-817 -93 c-53 -11 -83 -26 -105 -54 l-18 -21 0 23 c0 34 53 62 115 61
l50 -1 -42 -8z m348 -30 c12 -7 19 -21 18 -38 0 -15 -3 -21 -6 -14 -2 6 -8 12
-13 12 -5 0 -10 -6 -13 -12 -2 -7 -2 -2 0 11 3 18 0 22 -11 18 -16 -6 -22 13
-9 26 8 9 11 9 34 -3z m674 -41 c17 -31 21 -89 6 -73 -5 5 -18 32 -29 61 -15
40 -16 50 -5 46 7 -3 20 -18 28 -34z m-357 -45 c-14 -14 -15 -14 -10 11 3 19
8 23 15 16 8 -8 7 -16 -5 -27z m-393 16 c3 -5 1 -10 -4 -10 -6 0 -11 5 -11 10
0 6 2 10 4 10 3 0 8 -4 11 -10z m352 -77 c-9 -8 -28 7 -22 18 4 5 1 9 -5 9 -6
0 -8 5 -5 11 5 6 13 2 22 -11 8 -12 13 -24 10 -27z m-291 -28 c-24 -18 -33
-19 -42 -3 -5 8 -2 9 9 5 9 -3 19 -2 22 3 4 6 12 10 18 10 7 0 3 -7 -7 -15z
m334 -21 c0 -8 -4 -14 -10 -14 -5 0 -10 9 -10 21 0 11 5 17 10 14 6 -3 10 -13
10 -21z m-919 -12 c-6 -12 -11 -40 -11 -64 0 -56 -16 -83 -25 -45 -9 34 0 83
21 115 18 28 31 23 15 -6z m949 8 c0 -5 -2 -10 -4 -10 -3 0 -8 5 -11 10 -3 6
-1 10 4 10 6 0 11 -4 11 -10z m-315 -11 c4 -6 5 -12 2 -15 -7 -7 -37 7 -37 17
0 13 27 11 35 -2z m746 -46 c16 -48 6 -121 -26 -182 -31 -62 -42 -68 -15 -8
11 23 20 58 20 78 0 19 5 40 11 46 12 12 -4 87 -24 113 -10 13 -10 13 5 2 9
-8 22 -30 29 -49z m-1366 7 c-4 -12 -9 -19 -12 -17 -3 3 -2 15 2 27 4 12 9 19
12 17 3 -3 2 -15 -2 -27z m980 10 c3 -5 1 -10 -4 -10 -6 0 -11 5 -11 10 0 6 2
10 4 10 3 0 8 -4 11 -10z m-31 -15 c3 -9 0 -15 -9 -15 -8 0 -15 7 -15 15 0 8
4 15 9 15 5 0 11 -7 15 -15z m-1025 -83 c6 -12 9 -22 7 -22 -10 0 -36 59 -35
77 0 12 3 9 8 -8 5 -14 14 -35 20 -47z m701 58 c0 -5 -2 -10 -4 -10 -3 0 -8 5
-11 10 -3 6 -1 10 4 10 6 0 11 -4 11 -10z m717 -32 c-3 -7 -5 -2 -5 12 0 14 2
19 5 13 2 -7 2 -19 0 -25z m-712 -28 c3 -5 1 -10 -4 -10 -6 0 -11 5 -11 10 0
6 2 10 4 10 3 0 8 -4 11 -10z m35 -10 c0 -5 -4 -10 -10 -10 -5 0 -10 5 -10 10
0 6 5 10 10 10 6 0 10 -4 10 -10z m280 -16 c0 -8 -4 -12 -10 -9 -5 3 -10 13
-10 21 0 8 5 12 10 9 6 -3 10 -13 10 -21z m-30 -17 c0 -5 -10 -5 -22 -1 -29 8
-31 10 -24 23 8 12 46 -7 46 -22z m-214 -2 c-3 -9 -11 -13 -16 -10 -8 5 -7 11
1 21 14 18 24 11 15 -11z m-76 -5 c0 -5 -4 -10 -10 -10 -5 0 -10 5 -10 10 0 6
5 10 10 10 6 0 10 -4 10 -10z m40 -36 c0 -8 -4 -12 -10 -9 -5 3 -10 10 -10 16
0 5 5 9 10 9 6 0 10 -7 10 -16z m310 -64 c-20 -13 -33 -13 -25 0 3 6 14 10 23
10 15 0 15 -2 2 -10z m-295 -30 c-27 -12 -35 -12 -35 0 0 6 12 10 28 9 24 0
25 -1 7 -9z m276 -12 c11 -21 11 -22 -4 -9 -10 7 -17 17 -17 22 0 15 9 10 21
-13z m49 2 c0 -5 -4 -10 -10 -10 -5 0 -10 5 -10 10 0 6 5 10 10 10 6 0 10 -4
10 -10z m-264 -25 c-3 -8 2 -21 10 -30 14 -13 14 -15 0 -15 -8 0 -18 5 -21 10
-7 11 3 50 12 50 3 0 3 -7 -1 -15z m54 -18 c0 -20 -1 -20 -16 -5 -9 9 -13 21
-9 27 10 16 25 3 25 -22z m140 7 c0 -8 -4 -12 -10 -9 -5 3 -10 10 -10 16 0 5
5 9 10 9 6 0 10 -7 10 -16z m-46 -10 c4 -12 2 -15 -9 -11 -8 4 -17 2 -20 -3
-7 -12 -35 -13 -35 -2 0 6 35 28 51 31 4 0 10 -6 13 -15z m402 -18 c6 -17 -12
-56 -26 -56 -6 0 -10 16 -10 35 0 25 4 35 15 35 9 0 18 -6 21 -14z m-453 -51
c4 -8 2 -17 -3 -20 -6 -4 -10 -1 -10 4 0 6 -8 11 -17 11 -15 0 -16 2 -3 10 21
13 27 12 33 -5z m22 -44 c-3 -6 -11 -8 -17 -5 -6 4 -5 9 3 15 16 10 23 4 14
-10z m325 -26 c-18 -22 -74 -29 -101 -13 -23 12 -21 13 31 19 30 3 61 6 69 7
11 2 11 -1 1 -13z m-290 -118 c0 -47 -22 -96 -57 -128 -23 -22 -23 -20 7 27
25 41 32 64 33 108 1 61 17 55 17 -7z m-1759 -184 c71 -148 133 -413 144 -618
l6 -100 -59 150 c-75 190 -142 332 -220 467 -34 59 -62 111 -62 115 0 5 12 16
28 25 15 9 40 30 56 47 28 29 30 30 49 14 10 -10 36 -55 58 -100z m1770 14
c-12 -32 -45 -55 -92 -63 l-34 -7 38 27 c22 15 51 41 65 58 28 33 39 27 23
-15z m-72 -4 c-15 -17 -85 -52 -107 -53 -8 0 15 15 50 34 75 41 74 40 57 19z
m104 -195 c1 -70 -3 -101 -13 -113 -16 -20 -39 -77 -46 -119 -3 -16 -15 -47
-27 -69 -15 -29 -17 -42 -9 -45 7 -2 12 -10 12 -18 0 -17 20 -19 20 -1 1 6 8
-1 17 -18 15 -27 17 -28 23 -10 8 19 8 19 16 1 4 -10 3 -31 -3 -47 -11 -29
-10 -30 71 -42 10 -2 25 -14 33 -28 l14 -24 -5 30 c-4 27 -3 28 10 11 7 -10
16 -37 19 -60 3 -22 11 -84 19 -136 14 -105 11 -171 -10 -183 -8 -4 -14 -16
-14 -26 0 -10 -9 -30 -20 -44 -11 -14 -23 -39 -26 -56 -4 -18 -16 -39 -28 -49
-47 -39 -58 -59 -45 -80 7 -11 19 -18 26 -15 8 3 13 -3 13 -17 0 -18 3 -20 13
-11 16 13 27 5 27 -21 0 -10 5 -18 10 -18 6 0 10 5 10 10 0 6 6 10 14 10 9 0
16 -12 18 -32 2 -21 8 -33 18 -33 8 0 23 -10 33 -22 20 -25 23 -40 3 -24 -10
8 -16 8 -25 -3 -15 -17 2 -31 26 -22 9 4 21 -1 29 -11 13 -17 14 -17 8 0 -3 9
-1 17 5 17 18 0 13 -42 -9 -78 -11 -18 -18 -38 -14 -43 14 -23 5 -81 -15 -103
-13 -14 -21 -35 -21 -58 0 -20 -3 -38 -7 -40 -5 -2 -24 -34 -44 -73 -32 -64
-34 -71 -19 -86 9 -8 21 -14 27 -12 5 2 16 -4 23 -12 11 -13 11 -21 3 -35 -13
-21 1 -42 23 -33 8 3 14 -1 14 -10 0 -25 20 -31 35 -11 9 11 14 14 15 7 0 -18
17 -16 24 3 3 8 2 12 -4 9 -14 -9 -12 8 3 29 12 16 13 16 14 -4 3 -33 30 -69
50 -66 23 4 24 31 1 30 -10 -1 -18 4 -18 12 0 25 31 15 48 -16 9 -17 23 -28
30 -25 7 2 15 -2 17 -10 3 -8 8 -23 12 -32 3 -10 7 -21 8 -25 2 -5 3 -9 5 -10
9 -11 5 -124 -7 -231 -8 -70 -12 -136 -8 -146 3 -11 1 -22 -5 -26 -7 -4 -7
-13 1 -27 6 -11 8 -35 4 -55 -6 -32 -4 -34 14 -28 14 4 21 2 21 -7 0 -7 5 -5
12 6 11 19 11 19 26 0 10 -13 16 -15 19 -6 8 22 32 13 35 -15 2 -14 9 -28 16
-31 7 -2 10 2 6 12 -3 9 -1 16 4 16 6 0 14 -9 17 -20 5 -14 12 -19 25 -15 10
3 20 0 23 -9 3 -9 -2 -16 -15 -19 -29 -8 -20 -42 12 -44 15 -1 18 0 8 3 -27 8
-22 24 7 24 15 0 25 -6 25 -14 0 -7 7 -19 15 -26 8 -7 15 -17 15 -23 0 -6 -3
-7 -7 -3 -12 11 -30 -57 -20 -75 7 -11 2 -31 -14 -67 l-24 -52 -74 73 c-74 71
-81 68 -12 -5 19 -21 32 -40 29 -43 -3 -3 -56 49 -117 115 -72 76 -142 140
-194 176 -45 30 -104 73 -132 95 -61 48 -184 113 -244 129 -25 6 -58 22 -75
35 -17 12 -63 41 -102 64 -66 39 -94 70 -94 106 0 16 12 20 115 35 205 31 238
49 251 138 13 83 -39 314 -154 681 l-29 95 28 76 c40 111 59 226 59 359 0 150
-12 195 -116 464 -85 216 -124 329 -124 355 0 9 5 10 19 2 29 -15 55 -12 82 9
14 10 49 20 82 24 32 3 76 16 100 29 l42 24 8 -26 c5 -14 9 -68 10 -122z
m-321 113 c13 -5 37 -13 53 -16 l30 -7 -29 -15 c-26 -14 -31 -13 -54 4 -24 18
-40 43 -28 43 3 0 15 -4 28 -9z m548 -83 c0 -5 -7 -8 -15 -8 -17 0 -18 2 -9
25 5 13 8 14 15 3 5 -7 9 -16 9 -20z m-130 -38 c0 -13 -1 -13 -10 0 -5 8 -10
22 -10 30 0 13 1 13 10 0 5 -8 10 -22 10 -30z m-40 -14 c0 -8 -4 -17 -9 -21
-6 -3 -9 4 -8 15 1 23 17 28 17 6z m59 -63 c-12 -14 -4 -33 14 -33 7 0 13 -11
13 -25 1 -14 -2 -25 -6 -25 -13 0 -32 29 -26 39 3 5 2 11 -2 13 -5 1 -12 18
-15 35 -6 30 -5 32 13 21 14 -9 16 -16 9 -25z m-49 -3 c0 -5 -2 -10 -4 -10 -3
0 -8 5 -11 10 -3 6 -1 10 4 10 6 0 11 -4 11 -10z m187 -32 c2 -18 0 -20 -7 -8
-12 18 -13 30 -2 30 4 0 9 -10 9 -22z m23 -52 c0 -3 -4 -8 -10 -11 -5 -3 -10
-1 -10 4 0 6 5 11 10 11 6 0 10 -2 10 -4z m50 -82 c0 -9 -10 -14 -27 -14 -25
0 -26 1 -8 20 19 21 35 18 35 -6z m-160 -54 c0 -5 -4 -10 -10 -10 -5 0 -10 5
-10 10 0 6 5 10 10 10 6 0 10 -4 10 -10z m7 -42 c-3 -8 -6 -5 -6 6 -1 11 2 17
5 13 3 -3 4 -12 1 -19z m158 -66 c6 -21 5 -22 -14 -11 -13 9 -17 17 -11 24 6
7 6 16 0 23 -6 7 -4 6 4 0 8 -7 17 -23 21 -36z m42 12 c-3 -3 -12 -4 -19 -1
-8 3 -5 6 6 6 11 1 17 -2 13 -5z m14 -39 c-1 -15 -24 -12 -29 3 -3 9 2 13 12
10 10 -1 17 -7 17 -13z m-47 -45 c7 -24 6 -24 -8 -6 -9 11 -16 27 -16 35 0 21
16 2 24 -29z m-164 10 c0 -5 -5 -10 -11 -10 -5 0 -7 5 -4 10 3 6 8 10 11 10 2
0 4 -4 4 -10z m210 -196 c0 -32 -2 -34 -15 -20 -12 12 -14 20 -5 36 15 29 20
25 20 -16z m-130 -28 c0 -3 -4 -8 -10 -11 -5 -3 -10 -1 -10 4 0 6 5 11 10 11
6 0 10 -2 10 -4z m-2202 -47 c7 -12 11 -23 8 -26 -8 -9 -36 17 -36 33 0 20 13
17 28 -7z m2220 -17 c2 -12 9 -22 17 -22 12 0 29 -40 20 -49 -3 -2 -12 4 -20
15 -13 17 -14 17 -15 2 0 -10 -5 -18 -11 -18 -14 0 -6 -25 9 -26 7 -1 19 -2
27 -3 23 -2 18 -37 -7 -49 -23 -11 -23 -11 3 -11 24 -1 27 -7 44 -81 10 -44
15 -83 12 -87 -4 -3 -7 3 -7 15 0 12 -5 22 -11 22 -6 0 -8 9 -4 20 5 16 2 20
-14 20 -12 0 -21 5 -21 10 0 6 5 10 10 10 6 0 10 9 10 20 0 13 -7 20 -19 20
-15 0 -23 16 -40 78 -36 134 -36 139 -9 137 15 -1 24 -9 26 -23z m-81 -4 c-3
-8 -6 -5 -6 6 -1 11 2 17 5 13 3 -3 4 -12 1 -19z m-1850 -18 c14 0 13 -3 -3
-21 l-18 -20 -8 22 c-5 13 -6 30 -2 38 6 14 8 14 11 -1 3 -10 12 -18 20 -18z
m2113 5 c0 -8 -4 -15 -10 -15 -5 0 -10 7 -10 15 0 8 5 15 10 15 6 0 10 -7 10
-15z m-53 -17 c-3 -8 -6 -5 -6 6 -1 11 2 17 5 13 3 -3 4 -12 1 -19z m-2287
-13 c0 -14 -4 -25 -10 -25 -5 0 -10 11 -10 25 0 14 5 25 10 25 6 0 10 -11 10
-25z m-249 5 c5 0 9 -9 9 -21 0 -31 -44 -22 -48 10 -3 19 0 22 13 17 9 -3 21
-6 26 -6z m2336 -22 c-3 -8 -6 -5 -6 6 -1 11 2 17 5 13 3 -3 4 -12 1 -19z
m273 -9 c0 -15 -5 -31 -11 -35 -9 -5 -10 2 -6 22 3 16 4 23 1 16 -5 -10 -9
-10 -20 -1 -21 17 -17 27 11 27 21 0 25 -5 25 -29z m-2390 11 c0 -5 -4 -10
-10 -10 -5 0 -10 5 -10 10 0 6 5 10 10 10 6 0 10 -4 10 -10z m-110 -86 c0 -22
2 -25 15 -14 8 7 15 19 15 28 0 8 3 12 7 9 8 -9 -17 -87 -29 -87 -4 0 -8 6 -8
14 0 7 -7 19 -15 26 -8 7 -15 8 -15 3 0 -5 -20 -10 -45 -11 -36 -1 -43 1 -38
14 4 10 14 14 30 11 13 -2 26 0 29 5 3 4 10 6 15 3 15 -10 10 22 -6 35 -8 7
-15 22 -15 34 1 19 3 18 30 -12 17 -18 30 -43 30 -58z m330 69 c0 -13 3 -14
12 -5 7 7 23 12 37 12 31 0 21 -10 -27 -26 -39 -14 -59 -6 -49 20 8 21 27 20
27 -1z m-42 -36 c25 -23 28 -37 8 -37 -13 0 -56 49 -56 65 0 8 20 -3 48 -28z
m-368 3 c0 -17 -4 -19 -27 -14 -38 9 -40 12 -12 23 35 14 39 13 39 -9z m280
12 c0 -15 -38 -44 -49 -37 -18 10 -13 25 12 35 29 11 37 12 37 2z m-76 -28
c-3 -32 -6 -35 -23 -25 -11 7 -11 12 0 30 18 28 27 27 23 -5z m236 -4 c0 -5
-7 -10 -16 -10 -8 0 -12 5 -9 10 3 6 10 10 16 10 5 0 9 -4 9 -10z m-96 -19
c25 -27 11 -46 -14 -21 -21 21 -26 40 -12 40 5 0 17 -9 26 -19z m-289 -51 c3
-5 1 -10 -4 -10 -6 0 -11 5 -11 10 0 6 2 10 4 10 3 0 8 -4 11 -10z m2252 -22
c-3 -8 -6 -5 -6 6 -1 11 2 17 5 13 3 -3 4 -12 1 -19z m-2256 -28 c-24 -20 -61
-27 -61 -11 0 4 15 13 33 19 48 15 54 13 28 -8z m2229 10 c0 -5 -2 -10 -4 -10
-3 0 -8 5 -11 10 -3 6 -1 10 4 10 6 0 11 -4 11 -10z m-2390 -20 c0 -5 -4 -10
-10 -10 -5 0 -10 5 -10 10 0 6 5 10 10 10 6 0 10 -4 10 -10z m198 -2 c-6 -18
-28 -21 -28 -4 0 9 7 16 16 16 9 0 14 -5 12 -12z m-138 -23 c0 -8 -7 -15 -15
-15 -9 0 -12 6 -9 15 4 8 10 15 15 15 5 0 9 -7 9 -15z m-191 -23 c28 -40 37
-82 18 -82 -22 0 -39 25 -47 70 -9 47 1 51 29 12z m151 8 c0 -5 -4 -10 -10
-10 -5 0 -10 5 -10 10 0 6 5 10 10 10 6 0 10 -4 10 -10z m2275 -30 c3 -5 -1
-10 -9 -10 -8 0 -18 5 -21 10 -3 6 1 10 9 10 8 0 18 -4 21 -10z m-1250 -23
c-4 -16 1 -29 19 -45 32 -27 33 -44 4 -40 -17 2 -22 9 -21 25 2 16 -2 20 -17
16 -25 -7 -27 22 -3 49 21 24 25 23 18 -5z m1532 0 c11 4 29 -54 19 -64 -3 -3
-11 6 -17 20 -12 27 -33 28 -22 2 3 -8 0 -15 -6 -15 -17 0 -24 26 -16 58 6 23
8 25 18 11 7 -9 17 -14 24 -12z m-1477 -6 c0 -5 -7 -11 -15 -15 -9 -3 -15 0
-15 9 0 8 7 15 15 15 8 0 15 -4 15 -9z m65 -11 c-3 -5 -13 -10 -22 -10 -11 0
-14 -6 -9 -25 8 -30 -4 -32 -28 -6 -16 18 -16 20 6 35 25 18 63 22 53 6z
m1145 0 c0 -5 -5 -10 -11 -10 -5 0 -7 5 -4 10 3 6 8 10 11 10 2 0 4 -4 4 -10z
m462 -20 c-2 -16 -8 -30 -13 -30 -5 0 -9 14 -9 30 0 18 5 30 13 30 9 0 12 -10
9 -30z m-377 -1 c-10 -15 -25 -10 -19 6 4 8 10 12 15 9 5 -3 7 -10 4 -15z
m-1174 1 c26 -15 24 -30 -5 -30 -25 0 -51 22 -39 33 9 10 21 9 44 -3z m1139 0
c0 -5 -4 -10 -10 -10 -5 0 -10 5 -10 10 0 6 5 10 10 10 6 0 10 -4 10 -10z
m-1361 -26 c6 -15 9 -29 6 -32 -3 -4 -8 4 -12 16 -8 33 -47 26 -50 -8 0 -14
-1 -31 -2 -37 -1 -7 -8 -13 -16 -13 -18 0 -20 17 -3 22 7 3 8 9 3 18 -11 18
-14 51 -4 44 4 -2 10 0 14 6 13 20 52 11 64 -16z m-1062 -11 c4 -12 -66 -23
-73 -11 -5 8 10 12 34 9 6 -1 12 3 12 9 0 14 22 8 27 -7z m2779 -10 c-10 -10
-19 5 -10 18 6 11 8 11 12 0 2 -7 1 -15 -2 -18z m-286 7 c0 -5 -6 -10 -14 -10
-8 0 -18 5 -21 10 -3 6 3 10 14 10 12 0 21 -4 21 -10z m-30 -31 c0 -6 -4 -7
-10 -4 -5 3 -10 11 -10 16 0 6 5 7 10 4 6 -3 10 -11 10 -16z m185 11 c3 -5 1
-10 -4 -10 -6 0 -11 5 -11 10 0 6 2 10 4 10 3 0 8 -4 11 -10z m-2595 -32 c0
-6 -7 -5 -15 2 -8 7 -15 17 -15 22 0 6 7 5 15 -2 8 -7 15 -17 15 -22z m2455
22 c3 -5 1 -10 -4 -10 -6 0 -11 -5 -11 -11 0 -5 5 -7 10 -4 15 9 23 -21 11
-42 -10 -17 -10 -16 -11 4 0 12 -4 25 -10 28 -13 8 -13 45 -1 45 6 0 13 -4 16
-10z m49 -26 c4 -9 4 -19 2 -21 -8 -8 -26 8 -26 23 0 19 16 18 24 -2z m-2567
-24 c3 -11 9 -20 13 -20 13 0 6 -73 -7 -77 -9 -3 -11 4 -7 25 4 18 0 41 -10
61 -11 20 -13 31 -5 31 6 0 13 -9 16 -20z m2820 -7 c20 -30 24 -76 8 -81 -5
-1 -11 9 -12 22 -1 13 -9 38 -18 55 -19 38 -3 41 22 4z m95 2 c3 -14 1 -25 -3
-25 -5 0 -9 11 -9 25 0 14 2 25 4 25 2 0 6 -11 8 -25z m-2922 -47 c0 -12 -40
-29 -51 -23 -7 5 -6 11 2 21 9 11 9 14 0 14 -9 0 -9 5 0 22 l11 21 19 -24 c10
-13 19 -27 19 -31z m870 17 c0 -8 -7 -15 -15 -15 -16 0 -20 12 -8 23 11 12 23
8 23 -8z m2020 -19 c0 -3 -4 -8 -10 -11 -5 -3 -10 -1 -10 4 0 6 5 11 10 11 6
0 10 -2 10 -4z m-195 -36 c3 -5 1 -10 -4 -10 -6 0 -11 5 -11 10 0 6 2 10 4 10
3 0 8 -4 11 -10z m190 -83 c6 1 10 -20 11 -47 0 -27 5 -55 11 -62 6 -7 14 -31
17 -53 7 -40 7 -40 -10 -17 -22 29 -63 152 -57 168 2 7 0 15 -6 19 -15 9 -14
42 2 48 7 2 14 -8 17 -27 3 -17 10 -30 15 -29z m100 24 c-3 -11 -1 -22 5 -26
5 -3 10 -18 9 -33 0 -24 -1 -25 -9 -7 -6 13 -9 15 -9 5 -1 -13 -2 -13 -11 0
-13 20 -13 33 0 25 6 -3 10 -2 10 4 0 5 -5 13 -10 16 -8 5 -7 11 1 21 16 19
21 18 14 -5z m-1756 -21 c11 -34 5 -63 -13 -57 -6 2 -21 0 -33 -4 -20 -7 -23
-5 -24 14 0 21 -1 21 -12 -3 l-11 -25 -4 28 c-4 31 27 65 39 45 4 -6 12 -2 18
11 16 29 27 26 40 -9z m1401 -30 c0 -9 -15 -22 -32 -30 -18 -7 -37 -15 -41
-18 -5 -2 -2 10 7 26 18 36 20 46 6 37 -5 -3 -10 -1 -10 4 0 22 39 11 43 -11
3 -18 5 -17 6 7 1 23 3 27 11 15 5 -8 10 -22 10 -30z m60 36 c0 -3 -4 -8 -10
-11 -5 -3 -10 -1 -10 4 0 6 5 11 10 11 6 0 10 -2 10 -4z m-2817 -49 l25 -33
-26 -22 c-36 -33 -50 -22 -50 37 0 61 14 66 51 18z m65 21 c19 -19 15 -72 -8
-85 -11 -7 -21 -9 -25 -3 -3 5 2 13 12 18 16 9 16 11 0 27 -20 20 -23 55 -4
55 7 0 18 -5 25 -12z m76 -14 c8 -20 8 -54 0 -54 -23 0 -41 22 -37 45 6 28 28
34 37 9z m2780 -15 c9 -9 14 -69 6 -74 -4 -3 -13 7 -18 23 -5 15 -13 35 -17
44 -5 11 -2 16 9 14 8 -1 17 -4 20 -7z m-3000 -5 c26 -10 18 -24 -13 -24 -32
0 -50 15 -29 23 19 8 24 8 42 1z m2961 -32 c24 -36 24 -41 12 -72 l-14 -32 -7
27 c-7 29 -30 57 -43 54 -10 -2 -34 44 -26 51 3 3 8 -1 10 -7 4 -10 8 -9 20 2
20 20 19 20 48 -23z m-860 -94 c41 -131 43 -153 13 -172 -26 -16 -123 -46
-151 -46 -16 0 -18 5 -12 33 20 99 93 297 109 297 3 0 21 -50 41 -112z m742
82 c3 -24 3 -24 -15 -5 -11 11 -17 24 -15 28 9 15 26 1 30 -23z m387 5 c-4 -8
-2 -15 4 -15 6 0 13 6 15 13 4 9 6 9 6 -1 1 -14 -26 -28 -36 -19 -6 7 3 37 11
37 3 0 3 -7 0 -15z m-3024 -9 c0 -18 -17 -29 -30 -21 -8 5 -7 11 1 21 15 18
29 18 29 0z m1190 -16 c0 -5 -4 -10 -10 -10 -5 0 -10 5 -10 10 0 6 5 10 10 10
6 0 10 -4 10 -10z m1430 -20 c0 -5 -2 -10 -4 -10 -3 0 -8 5 -11 10 -3 6 -1 10
4 10 6 0 11 -4 11 -10z m426 -17 c0 -13 -2 -23 -3 -23 -1 0 -12 4 -25 9 -13 5
-31 12 -41 15 -29 9 -12 21 31 21 35 0 39 -2 38 -22z m-3058 -3 c8 -13 10 -34
6 -56 -7 -37 -19 -51 -30 -33 -5 8 -9 8 -14 -1 -4 -7 -13 -9 -19 -6 -16 10
-14 36 4 42 13 5 13 9 3 22 -11 13 -10 15 9 10 20 -5 22 -3 17 18 -8 29 7 31
24 4z m1196 5 c-4 -8 -10 -12 -15 -9 -11 6 -2 24 11 24 5 0 7 -7 4 -15z m1545
-17 c6 -17 9 -33 6 -36 -2 -3 -7 4 -10 14 -4 10 -11 27 -16 37 -5 10 -5 17 0
17 5 0 14 -14 20 -32z m74 6 c-9 -15 -19 -21 -21 -15 -4 13 16 41 29 41 5 0 2
-12 -8 -26z m-1541 -1 c10 -9 18 -20 18 -25 0 -15 -18 -8 -47 17 -24 21 -25
24 -9 25 11 0 28 -7 38 -17z m-1179 -13 c3 -11 4 -20 2 -20 -2 0 -10 -2 -18
-5 -10 -4 -13 1 -11 17 3 29 2 28 13 28 5 0 11 -9 14 -20z m2464 -2 c-3 -8 -6
-5 -6 6 -1 11 2 17 5 13 3 -3 4 -12 1 -19z m58 -6 c-3 -3 -11 0 -18 7 -9 10
-8 11 6 5 10 -3 15 -9 12 -12z m225 9 c0 -6 -4 -13 -10 -16 -5 -3 -10 1 -10 9
0 9 5 16 10 16 6 0 10 -4 10 -9z m-1780 -16 c-11 -13 -8 -15 15 -15 29 0 30
-17 1 -34 -13 -9 -21 -6 -36 14 -20 26 -12 50 17 50 13 0 13 -3 3 -15z m-90
-24 c0 -11 -10 -27 -21 -35 -16 -11 -19 -20 -14 -33 8 -17 8 -17 12 0 5 19 5
19 27 11 23 -9 20 -29 -9 -48 -23 -15 -25 -15 -40 6 -17 26 -20 54 -4 63 6 4
8 13 5 21 -3 7 3 18 12 23 25 15 32 13 32 -8z m238 0 c3 -10 -2 -11 -18 -6
-17 5 -21 4 -18 -6 3 -9 17 -13 36 -12 43 4 46 -9 6 -28 l-33 -16 -16 34 c-9
18 -13 38 -10 44 9 14 47 7 53 -10z m1812 9 c0 -5 -7 -10 -15 -10 -8 0 -15 5
-15 10 0 6 7 10 15 10 8 0 15 -4 15 -10z m60 -1 c0 -5 -4 -7 -10 -4 -6 4 -7
-6 -4 -25 5 -23 3 -30 -9 -30 -29 0 -37 56 -9 63 29 8 32 7 32 -4z m-2166 -14
c3 -10 -5 -20 -25 -30 l-30 -16 16 30 c17 34 30 39 39 16z m1878 -10 c3 -13 1
-22 -3 -19 -9 5 -13 44 -5 44 2 0 6 -11 8 -25z m-2662 1 c25 -10 29 -14 15
-20 -27 -10 -53 -7 -58 8 -3 8 -3 17 0 20 8 8 6 8 43 -8z m900 0 c0 -22 -11
-46 -21 -46 -5 0 -9 14 -9 30 0 20 5 30 15 30 8 0 15 -6 15 -14z m1830 -16 c0
-3 -9 -6 -20 -6 -23 0 -24 2 -7 20 11 13 26 4 27 -14z m114 -37 c15 -44 9 -60
-21 -49 -11 5 -14 14 -10 34 3 16 0 35 -9 46 -20 28 -17 38 6 24 11 -7 26 -32
34 -55z m-449 47 c-3 -5 -12 -10 -18 -10 -7 0 -6 4 3 10 19 12 23 12 15 0z
m478 -3 c4 3 7 1 7 -5 0 -18 -22 -26 -31 -11 -13 21 -11 33 4 20 8 -6 17 -8
20 -4z m107 -7 c0 -5 -4 -10 -10 -10 -5 0 -10 5 -10 10 0 6 5 10 10 10 6 0 10
-4 10 -10z m-2911 -53 c-15 -33 -34 -36 -25 -4 3 12 6 31 6 42 0 17 1 18 16 4
12 -13 13 -20 3 -42z m46 -3 c-23 -36 -30 -24 -8 14 10 18 20 27 21 21 2 -5
-4 -21 -13 -35z m875 20 c0 -8 -6 -14 -12 -14 -21 0 -41 17 -34 28 8 14 46 3
46 -14z m1646 -11 c-11 -11 -17 4 -9 23 7 18 8 18 11 1 2 -10 1 -21 -2 -24z
m-2666 -8 c-14 -17 -70 -21 -70 -5 0 6 15 17 33 25 36 15 57 5 37 -20z m49
-17 c0 -24 -3 -36 -6 -28 -3 8 -12 19 -20 23 -10 6 -10 13 -3 28 17 32 30 22
29 -23z m1105 26 c4 -9 4 -19 1 -22 -6 -6 -35 18 -35 29 0 16 28 10 34 -7z
m1766 12 c0 -3 -4 -8 -10 -11 -5 -3 -10 -1 -10 4 0 6 5 11 10 11 6 0 10 -2 10
-4z m108 -20 c1 -24 -27 -86 -39 -86 -6 0 -14 10 -19 23 -5 12 -9 17 -9 10 -1
-7 4 -24 11 -38 10 -21 9 -29 -5 -42 -13 -13 -19 -14 -29 -5 -9 9 -8 12 5 12
9 0 17 5 17 10 0 6 -5 10 -10 10 -6 0 -15 11 -21 24 -14 31 4 68 28 59 11 -5
14 -3 8 6 -6 10 -3 11 13 2 31 -17 47 -14 32 4 -7 8 -19 15 -26 15 -8 0 -14 5
-14 10 0 6 13 9 28 8 20 -1 28 -8 30 -22z m-2576 -62 c-11 -33 -23 -104 -27
-159 -3 -55 -18 -174 -33 -265 -56 -356 -24 -641 88 -782 35 -44 36 -48 10
-41 -16 4 -20 0 -20 -18 -1 -24 -1 -24 -16 -4 -37 48 -114 220 -131 292 -26
111 -26 453 1 603 10 58 21 132 25 166 l7 61 -61 -1 -60 -1 -7 60 c-4 33 -9
71 -10 85 -2 18 4 28 26 38 33 17 146 29 146 16 0 -5 -21 -28 -47 -51 -47 -41
-53 -61 -15 -49 11 4 46 33 78 65 33 32 60 55 62 51 2 -4 -6 -34 -16 -66z
m538 49 c19 -17 28 -53 12 -53 -12 0 -42 39 -42 55 0 19 5 19 30 -2z m1737
-49 c-12 -13 -27 9 -26 39 l0 32 16 -32 c9 -18 14 -36 10 -39z m47 51 c6 -17
4 -18 -18 -9 -20 8 -21 24 -2 24 8 0 16 -7 20 -15z m-1710 -11 c10 -26 -4 -37
-25 -18 -10 9 -19 21 -19 26 0 15 38 8 44 -8z m1346 7 c0 -5 -9 -7 -20 -4 -11
3 -20 7 -20 9 0 2 9 4 20 4 11 0 20 -4 20 -9z m45 -1 c3 -5 -1 -10 -9 -10 -8
0 -18 5 -21 10 -3 6 1 10 9 10 8 0 18 -4 21 -10z m215 -10 c0 -5 -4 -10 -10
-10 -5 0 -10 5 -10 10 0 6 5 10 10 10 6 0 10 -4 10 -10z m-93 -6 c-3 -3 -12
-4 -19 -1 -8 3 -5 6 6 6 11 1 17 -2 13 -5z m-2567 -39 c0 -31 -16 -40 -29 -16
-7 13 -17 17 -31 14 -15 -4 -19 -2 -14 10 5 15 49 27 67 19 4 -2 7 -14 7 -27z
m919 18 c9 -16 12 -16 21 -3 7 12 10 8 10 -17 0 -36 -10 -42 -30 -18 -16 19
-29 19 -52 -2 -17 -15 -21 -15 -29 -3 -12 19 -6 46 9 43 7 -2 12 2 12 7 0 17
48 11 59 -7z m1461 -9 c0 -8 -4 -14 -9 -14 -11 0 -22 26 -14 34 9 9 23 -3 23
-20z m35 16 c3 -5 1 -10 -4 -10 -6 0 -11 5 -11 10 0 6 2 10 4 10 3 0 8 -4 11
-10z m50 -10 c-3 -5 -11 -10 -16 -10 -6 0 -7 5 -4 10 3 6 11 10 16 10 6 0 7
-4 4 -10z m430 -42 c2 -18 3 -38 4 -44 1 -5 17 -28 37 -49 23 -25 34 -46 30
-58 -2 -10 2 -34 10 -52 20 -48 18 -51 -20 -51 -36 0 -48 14 -59 64 -5 19 -3
21 9 11 8 -6 14 -17 14 -25 0 -7 5 -16 12 -20 7 -5 8 -3 4 5 -5 7 0 18 10 27
16 11 16 13 2 8 -10 -3 -20 2 -27 15 -9 17 -8 22 11 32 17 9 19 14 9 17 -8 3
-29 20 -48 38 -33 33 -43 67 -23 79 6 3 10 14 10 23 0 14 -2 15 -10 2 -5 -8
-12 -11 -16 -7 -4 3 -1 14 6 22 17 21 31 6 35 -37z m-375 38 c0 -3 -4 -8 -10
-11 -5 -3 -10 -1 -10 4 0 6 5 11 10 11 6 0 10 -2 10 -4z m-1480 -10 c0 -2 3
-11 6 -20 4 -10 1 -16 -9 -16 -8 0 -20 -7 -27 -15 -17 -21 -30 -19 -30 4 0 23
25 51 46 51 8 0 14 -2 14 -4z m1372 -48 c-17 -17 -47 9 -30 29 10 12 13 12 27
-1 11 -12 12 -19 3 -28z m-2433 -8 c3 -24 2 -24 -17 -7 -11 10 -26 15 -36 11
-19 -7 -22 12 -3 20 27 11 52 1 56 -24z m941 -10 c16 -38 11 -44 -25 -30 -19
7 -25 15 -21 26 3 9 6 20 6 25 0 22 29 6 40 -21z m1820 2 c0 -15 -2 -15 -10
-2 -13 20 -13 33 0 25 6 -3 10 -14 10 -23z m-1676 -14 c11 -31 0 -72 -14 -48
-4 8 -11 30 -15 49 -5 26 -4 32 6 29 8 -3 18 -16 23 -30z m1533 12 c14 -21 1
-37 -14 -17 -21 26 -24 37 -11 37 7 0 19 -9 25 -20z m-2637 -19 c-1 -20 -29
-39 -48 -34 -28 7 -28 17 0 42 16 16 25 18 35 10 7 -6 13 -14 13 -18z m3048
-15 c7 -33 -14 -40 -45 -16 -15 13 -20 20 -10 17 11 -4 17 -1 17 9 0 22 34 13
38 -10z m-105 -70 c-3 -5 -12 2 -19 15 -20 36 -16 48 5 19 11 -13 17 -29 14
-34z m117 -97 c0 -6 -4 -7 -10 -4 -5 3 -10 11 -10 16 0 6 5 7 10 4 6 -3 10
-11 10 -16z m-318 -43 c5 -7 8 -5 8 6 0 11 6 15 20 11 19 -5 19 -6 3 -34 -21
-36 -30 -36 -45 -4 -6 14 -15 25 -20 25 -4 0 -8 4 -8 10 0 11 32 1 42 -14z
m311 -52 c10 -31 17 -57 15 -59 -8 -9 -28 12 -31 33 -2 12 -6 24 -9 28 -4 3
-4 12 -1 20 4 10 0 12 -11 8 -16 -6 -22 7 -9 19 16 17 29 3 46 -49z m-2584
-135 c10 -180 43 -355 90 -491 l29 -80 -32 30 c-17 17 -40 32 -50 34 -12 2
-23 15 -28 33 -15 56 -38 317 -38 429 0 108 9 220 17 213 2 -2 7 -78 12 -168z
m2341 145 c0 -8 -9 -14 -20 -14 -22 0 -26 10 -8 28 13 13 28 7 28 -14z m55 17
c-3 -5 -1 -12 5 -16 5 -3 10 1 10 9 0 18 16 21 26 5 5 -8 9 -8 14 1 4 7 15
-20 25 -62 28 -122 27 -116 11 -88 -9 14 -15 32 -16 41 0 16 -30 23 -30 7 0
-4 4 -8 10 -8 5 0 12 -12 16 -27 4 -16 13 -38 21 -51 12 -20 12 -25 -2 -38
-18 -19 -19 -26 -3 -42 9 -9 8 -12 -6 -12 -15 0 -17 6 -12 48 4 36 1 55 -14
82 -10 19 -25 46 -32 60 -7 14 -18 30 -25 35 -7 6 -17 22 -22 38 -9 24 -8 27
10 27 11 0 18 -4 14 -9z m115 -1 c0 -5 -5 -10 -11 -10 -5 0 -7 5 -4 10 3 6 8
10 11 10 2 0 4 -4 4 -10z m-250 -36 c0 -8 -4 -14 -10 -14 -5 0 -10 9 -10 21 0
11 5 17 10 14 6 -3 10 -13 10 -21z m270 -4 c0 -11 -2 -20 -4 -20 -2 0 -6 9 -9
20 -3 11 -1 20 4 20 5 0 9 -9 9 -20z m-185 -30 c3 -5 2 -10 -4 -10 -5 0 -13 5
-16 10 -3 6 -2 10 4 10 5 0 13 -4 16 -10z m-25 -46 c0 -8 -4 -12 -10 -9 -5 3
-10 13 -10 21 0 8 5 12 10 9 6 -3 10 -13 10 -21z m285 6 c-3 -5 -10 -10 -16
-10 -5 0 -9 5 -9 10 0 6 7 10 16 10 8 0 12 -4 9 -10z m-285 -45 c0 -2 -7 -5
-15 -9 -9 -3 -15 0 -15 9 0 9 6 12 15 9 8 -4 15 -7 15 -9z m250 5 c-20 -13
-33 -13 -25 0 3 6 14 10 23 10 15 0 15 -2 2 -10z m-300 -30 c6 -11 8 -20 6
-20 -3 0 -10 9 -16 20 -6 11 -8 20 -6 20 3 0 10 -9 16 -20z m485 0 c-4 -6 7
-24 24 -41 34 -33 39 -60 17 -78 -18 -15 -32 3 -28 36 4 24 -13 39 -24 22 -3
-6 -1 -15 6 -19 9 -5 9 -9 1 -14 -6 -4 -11 -2 -11 3 0 6 -7 11 -15 11 -8 0
-15 2 -15 4 0 2 -3 11 -6 20 -4 11 0 16 14 16 12 0 24 5 27 10 3 6 2 10 -4 10
-6 0 -8 7 -5 15 4 8 10 15 16 15 5 0 6 -5 3 -10z m-161 -12 c-18 -32 -27 -39
-35 -27 -11 18 1 39 23 39 12 0 17 -4 12 -12z m46 -43 c0 -18 -4 -23 -15 -19
-17 7 -17 7 -9 28 9 24 24 19 24 -9z m-840 -32 c52 -30 106 -75 135 -112 l20
-26 -35 27 c-19 16 -75 55 -125 89 -49 34 -92 63 -95 66 -11 10 59 -20 100
-44z m720 10 c0 -20 -3 -24 -11 -16 -7 7 -9 19 -6 27 10 24 17 19 17 -11z m80
-7 c0 -11 -19 -15 -25 -6 -3 5 1 10 9 10 9 0 16 -2 16 -4z m-295 -26 c3 -5 -1
-10 -9 -10 -9 0 -16 5 -16 10 0 6 4 10 9 10 6 0 13 -4 16 -10z m408 -2 c2 -7
1 -22 -3 -32 -6 -17 -7 -18 -13 -3 -4 10 -1 17 6 18 9 0 9 2 0 6 -15 5 -17 23
-4 23 5 0 11 -6 14 -12z m-473 -18 c0 -5 -4 -10 -10 -10 -5 0 -10 5 -10 10 0
6 5 10 10 10 6 0 10 -4 10 -10z m448 -60 c17 -48 19 -67 10 -97 -11 -44 -31
-68 -47 -59 -16 10 -14 36 3 30 8 -3 16 3 19 16 8 30 -2 50 -24 50 -10 0 -19
6 -19 14 0 17 27 29 35 16 12 -20 24 -10 16 13 -12 33 -22 77 -17 77 2 0 13
-27 24 -60z m-368 40 c0 -5 -9 -10 -20 -10 -11 0 -20 5 -20 10 0 6 9 10 20 10
11 0 20 -4 20 -10z m330 -30 c-1 -12 -4 -11 -15 4 -8 10 -12 23 -8 29 7 11 23
-12 23 -33z m-256 15 c3 -8 1 -15 -4 -15 -6 0 -10 7 -10 15 0 8 2 15 4 15 2 0
6 -7 10 -15z m-34 -5 c0 -5 -5 -10 -11 -10 -5 0 -7 5 -4 10 3 6 8 10 11 10 2
0 4 -4 4 -10z m120 -10 c0 -5 -2 -10 -4 -10 -3 0 -8 5 -11 10 -3 6 -1 10 4 10
6 0 11 -4 11 -10z m-22 -35 c13 -29 5 -33 -14 -7 -15 20 -18 32 -6 32 5 0 14
-11 20 -25z m428 -23 c-3 -2 -13 3 -22 13 -14 14 -15 18 -3 25 10 7 16 3 22
-12 4 -11 5 -23 3 -26z m-472 22 c9 -24 2 -26 -12 -4 -7 11 -8 20 -3 20 5 0
12 -7 15 -16z m341 -81 c14 -31 28 -73 31 -94 6 -34 4 -40 -19 -50 -22 -10
-24 -14 -14 -30 13 -22 43 -25 50 -6 4 14 18 -28 42 -130 11 -48 13 -78 7 -90
-15 -28 -26 -107 -14 -99 5 3 13 26 16 51 4 25 11 43 16 40 5 -3 6 -21 3 -40
-5 -34 -4 -35 26 -35 32 0 39 8 20 27 -6 6 -10 16 -8 22 2 6 15 -9 28 -32 17
-29 19 -38 8 -28 -15 12 -17 11 -17 -3 0 -8 -13 -22 -30 -31 -29 -15 -32 -40
-6 -57 16 -11 28 3 15 18 -6 8 -9 17 -5 21 12 12 31 -21 56 -94 20 -61 22 -76
12 -99 -15 -31 -22 -28 -26 11 -3 25 -7 28 -44 29 -22 0 -38 -2 -35 -6 2 -5 1
-8 -4 -8 -11 1 -62 118 -69 160 -4 22 0 50 10 73 15 36 10 47 -11 26 -23 -23
-46 -5 -59 43 -6 27 -8 45 -3 42 17 -10 49 -13 54 -5 2 5 -2 15 -11 22 -11 9
-17 10 -23 1 -4 -7 -12 -8 -21 -1 -11 6 -12 11 -4 17 6 4 14 17 18 30 5 16 3
22 -8 22 -8 0 -16 -10 -19 -22 -3 -22 -4 -22 -15 5 -20 47 -25 77 -13 77 6 0
11 -7 11 -15 0 -8 4 -15 9 -15 5 0 8 21 7 48 -1 52 -14 82 -26 63 -5 -9 -11
-7 -20 4 -12 15 -11 16 5 13 10 -1 20 3 22 10 3 7 -5 12 -21 12 -16 0 -26 6
-26 15 0 8 6 12 13 9 21 -8 88 61 80 82 -6 15 -7 14 -15 -6 -5 -13 -10 -21
-12 -19 -4 5 5 79 10 79 2 0 16 -25 29 -57z m85 22 c13 -14 18 -25 12 -25 -6
0 -14 5 -18 11 -3 6 -19 9 -35 5 -29 -5 -45 6 -34 24 11 18 51 10 75 -15z
m-184 -17 c-18 -10 -39 -2 -31 12 3 4 15 6 26 3 19 -5 19 -7 5 -15z m-519 -52
c32 -35 66 -79 76 -97 17 -31 15 -30 -26 13 -72 76 -130 148 -119 148 6 0 37
-29 69 -64z m665 12 c-7 -7 -12 -8 -12 -2 0 14 12 26 19 19 2 -3 -1 -11 -7
-17z m55 -14 c2 -10 0 -13 -3 -6 -3 6 -12 12 -20 12 -9 0 -12 5 -9 11 10 15
30 5 32 -17z m-25 -36 c-2 -10 -8 -15 -13 -12 -14 8 -11 31 5 31 8 0 11 -8 8
-19z m-261 -25 c10 -11 10 -14 2 -9 -10 5 -13 -3 -13 -28 0 -41 -5 -43 -34
-18 -20 17 -20 17 -3 -11 14 -21 15 -32 7 -47 -15 -28 -28 -17 -35 28 -4 20
-9 50 -12 65 -5 26 -3 28 15 18 28 -15 42 -14 42 4 0 20 14 19 31 -2z m49 -9
c0 -8 -4 -12 -10 -9 -5 3 -10 13 -10 21 0 8 5 12 10 9 6 -3 10 -13 10 -21z
m-30 -34 c0 -5 -2 -10 -4 -10 -3 0 -8 5 -11 10 -3 6 -1 10 4 10 6 0 11 -4 11
-10z m110 -20 c0 -5 -7 -7 -15 -4 -8 4 -15 8 -15 10 0 2 7 4 15 4 8 0 15 -4
15 -10z m90 0 c0 -5 -4 -10 -10 -10 -5 0 -10 5 -10 10 0 6 5 10 10 10 6 0 10
-4 10 -10z m-200 -22 c0 -13 4 -18 8 -13 12 17 45 11 53 -10 15 -38 11 -47
-13 -31 -12 9 -34 16 -48 16 -24 0 -26 3 -22 30 5 35 22 41 22 8z m-106 -43
c15 -11 17 -18 8 -27 -13 -13 -42 6 -42 28 0 18 10 17 34 -1z m121 -26 c-10
-15 -25 -10 -19 6 4 8 10 12 15 9 5 -3 7 -10 4 -15z m-50 1 c3 -5 1 -10 -4
-10 -6 0 -11 5 -11 10 0 6 2 10 4 10 3 0 8 -4 11 -10z m392 -22 c7 -6 11 -14
8 -18 -3 -5 -1 -11 5 -15 5 -3 10 -11 10 -17 0 -6 -3 -8 -7 -5 -3 4 -12 2 -20
-4 -10 -9 -13 -8 -13 0 0 7 -5 9 -12 5 -6 -4 -16 0 -22 8 -6 8 -17 17 -24 19
-8 3 -5 9 9 17 15 10 19 10 14 1 -6 -8 -4 -10 5 -4 10 6 9 11 -6 23 -18 13
-17 14 11 7 16 -3 35 -11 42 -17z m-427 -29 c0 -24 -4 -38 -10 -34 -5 3 -10
22 -10 41 0 19 5 34 10 34 6 0 10 -18 10 -41z m140 1 c0 -5 -2 -10 -4 -10 -3
0 -8 5 -11 10 -3 6 -1 10 4 10 6 0 11 -4 11 -10z m350 -24 c0 -2 -7 -7 -16
-10 -8 -3 -12 -2 -9 4 6 10 25 14 25 6z m6 -40 c3 -8 4 -25 2 -38 -3 -22 -4
-21 -20 9 -9 17 -13 34 -10 37 10 10 22 6 28 -8z m-2571 -76 c-19 -38 -38 -70
-40 -70 -3 0 11 32 30 70 19 39 38 70 40 70 3 0 -11 -31 -30 -70z m2225 46 c0
-24 -33 -91 -38 -78 -2 8 1 19 7 25 6 6 11 26 11 45 0 19 4 31 10 27 6 -3 10
-12 10 -19z m-80 -12 c0 -2 -9 0 -20 6 -11 6 -20 13 -20 16 0 2 9 0 20 -6 11
-6 20 -13 20 -16z m390 -5 c13 -24 9 -66 -5 -59 -5 3 -9 20 -8 38 2 23 -2 32
-13 32 -9 0 -12 -5 -8 -12 4 -7 3 -8 -4 -4 -19 11 -14 26 8 26 10 0 24 -9 30
-21z m-70 -41 c0 -5 -4 -8 -10 -8 -5 0 -10 10 -10 23 0 18 2 19 10 7 5 -8 10
-18 10 -22z m-215 -8 c3 -5 1 -10 -4 -10 -6 0 -11 5 -11 10 0 6 2 10 4 10 3 0
8 -4 11 -10z m85 -47 c0 -44 -5 -41 -14 10 -5 27 -4 37 3 32 6 -3 11 -22 11
-42z m243 20 c-6 -16 -5 -16 10 -4 16 13 47 9 47 -6 -1 -25 -17 -32 -53 -22
-41 11 -46 23 -19 38 23 14 22 14 15 -6z m-72 -36 c-1 -12 -15 -9 -19 4 -3 6
1 10 8 8 6 -3 11 -8 11 -12z m-2560 -20 c-10 -9 -11 -8 -5 6 3 10 9 15 12 12
3 -3 0 -11 -7 -18z m2525 -176 c-4 -5 -1 -11 6 -13 12 -4 3 -28 -12 -28 -14 0
-21 33 -8 42 17 10 20 10 14 -1z m229 -1 c-3 -5 -11 -10 -16 -10 -6 0 -7 5 -4
10 3 6 11 10 16 10 6 0 7 -4 4 -10z m-185 -70 c0 -23 -13 -26 -29 -6 -9 11 -9
15 1 19 23 10 28 7 28 -13z"/>
<path d="M4453 2320 c-28 -11 -29 -26 -3 -40 11 -6 20 -9 21 -8 4 13 9 58 7
57 -2 0 -13 -4 -25 -9z"/>
<path d="M4482 2268 c5 -15 58 -30 58 -17 0 5 -12 14 -26 19 -33 13 -37 13
-32 -2z"/>
<path d="M4440 2261 c0 -6 5 -13 10 -16 14 -9 12 -25 -3 -25 -9 0 -14 -12 -15
-31 0 -19 4 -29 11 -26 7 2 12 14 11 26 -1 24 0 25 27 11 24 -14 24 -6 -2 36
-20 33 -39 44 -39 25z"/>
<path d="M4897 994 c-15 -15 -7 -45 11 -42 9 2 17 12 17 22 0 20 -16 31 -28
20z"/>
<path d="M4950 925 c22 -24 25 -24 31 -8 9 25 2 33 -28 33 l-26 0 23 -25z"/>
<path d="M4930 891 c0 -12 6 -21 16 -21 9 0 14 7 12 17 -5 25 -28 28 -28 4z"/>
<path d="M4580 2832 c0 -25 16 -37 23 -18 3 8 -1 20 -9 26 -11 10 -14 9 -14
-8z"/>
<path d="M5300 915 c-15 -18 -6 -45 15 -45 9 0 15 9 15 24 0 31 -14 40 -30 21z
m17 -27 c-3 -8 -6 -5 -6 6 -1 11 2 17 5 13 3 -3 4 -12 1 -19z"/>
<path d="M5334 749 c-10 -17 23 -46 37 -32 7 7 9 19 6 27 -7 18 -33 21 -43 5z
m36 -9 c0 -5 -4 -10 -10 -10 -5 0 -10 5 -10 10 0 6 5 10 10 10 6 0 10 -4 10
-10z"/>
<path d="M5363 683 c-18 -7 -16 -30 4 -37 21 -8 38 8 30 28 -7 16 -13 18 -34
9z m27 -13 c0 -5 -5 -10 -11 -10 -5 0 -7 5 -4 10 3 6 8 10 11 10 2 0 4 -4 4
-10z"/>
<path d="M5380 601 c0 -6 5 -13 10 -16 6 -3 10 1 10 9 0 9 -4 16 -10 16 -5 0
-10 -4 -10 -9z"/>
<path d="M5330 572 c0 -14 11 -21 26 -15 21 8 17 23 -6 23 -11 0 -20 -4 -20
-8z"/>
<path d="M5390 450 c0 -11 4 -21 9 -24 5 -3 7 -15 4 -25 -3 -13 2 -21 16 -26
12 -3 21 -11 21 -16 0 -6 4 -8 10 -4 14 9 1 32 -23 39 -18 5 -19 8 -8 15 12 8
12 12 2 24 -9 12 -9 16 1 19 7 3 3 7 -10 10 -17 5 -22 2 -22 -12z"/>
<path d="M5470 351 c0 -10 7 -24 15 -31 12 -10 16 -9 21 4 6 16 -11 46 -27 46
-5 0 -9 -8 -9 -19z"/>
<path d="M5411 349 c1 -26 14 -44 32 -45 23 -2 21 7 -8 35 -16 14 -25 18 -24
10z"/>
<path d="M5486 685 c-4 -12 -1 -16 11 -13 18 3 21 20 5 26 -5 1 -12 -4 -16
-13z"/>
<path d="M3010 2725 c-5 -14 -15 -24 -22 -23 -14 3 -14 -4 -3 -40 6 -21 4 -23
-14 -17 -23 7 -28 -9 -11 -35 8 -13 11 -13 22 2 7 9 24 18 38 20 31 4 33 22 2
26 -33 5 -24 36 11 40 32 4 33 6 7 32 l-20 20 -10 -25z"/>
<path d="M2877 2693 c-12 -12 -7 -22 8 -17 8 4 15 10 15 15 0 11 -14 12 -23 2z"/>
<path d="M2418 2628 c9 -9 15 -9 24 0 9 9 7 12 -12 12 -19 0 -21 -3 -12 -12z"/>
<path d="M2396 2574 c-10 -26 -7 -56 5 -49 6 4 8 13 5 20 -3 8 1 15 9 17 11 2
11 5 0 15 -10 10 -14 9 -19 -3z"/>
<path d="M2215 2490 c3 -5 8 -10 11 -10 2 0 4 5 4 10 0 6 -5 10 -11 10 -5 0
-7 -4 -4 -10z"/>
<path d="M2720 2444 c0 -8 -4 -12 -10 -9 -5 3 -10 1 -10 -4 0 -16 37 -13 43 3
6 15 -1 26 -15 26 -4 0 -8 -7 -8 -16z"/>
<path d="M2305 2440 c3 -5 8 -10 11 -10 2 0 4 5 4 10 0 6 -5 10 -11 10 -5 0
-7 -4 -4 -10z"/>
<path d="M2360 2365 c0 -8 4 -15 10 -15 5 0 7 7 4 15 -4 8 -8 15 -10 15 -2 0
-4 -7 -4 -15z"/>
<path d="M3113 2343 c-3 -10 -13 -26 -20 -35 -17 -19 -8 -40 15 -36 11 2 16
15 17 46 1 45 -2 52 -12 25z"/>
<path d="M2800 2334 c0 -10 -5 -14 -15 -10 -8 3 -26 1 -40 -4 -16 -6 -27 -6
-31 2 -4 7 -10 5 -16 -6 -8 -14 -13 -15 -24 -5 -11 9 -17 9 -29 -1 -20 -17
-19 -31 2 -23 11 4 14 3 9 -5 -4 -7 -20 -12 -36 -12 -16 0 -32 -5 -36 -12 -5
-8 0 -9 14 -6 12 4 25 2 28 -4 3 -5 13 -7 21 -4 19 8 60 -20 66 -45 3 -12 11
-17 21 -13 9 3 16 10 16 15 0 6 10 4 23 -2 21 -11 21 -11 5 7 -12 14 -14 24
-7 37 6 9 15 15 20 11 6 -3 10 2 8 12 -3 28 11 53 27 47 18 -7 18 4 0 23 -19
18 -26 18 -26 -2z m-89 -56 c0 -10 2 -10 6 0 2 6 9 9 14 6 15 -9 -10 -34 -27
-27 -8 3 -14 11 -14 19 0 17 20 19 21 2z"/>
<path d="M2433 2235 c0 -16 5 -26 16 -27 9 0 23 -2 31 -3 21 -2 40 14 40 35 0
13 -6 17 -20 13 -11 -3 -20 -13 -20 -21 0 -12 -4 -11 -16 6 -20 29 -31 28 -31
-3z"/>
<path d="M3111 2246 c-8 -10 -9 -16 -1 -21 13 -8 30 3 30 21 0 18 -14 18 -29
0z"/>
<path d="M3060 2232 c0 -5 7 -13 16 -16 10 -4 14 -1 12 6 -5 15 -28 23 -28 10z"/>
<path d="M2814 2217 c-8 -9 -7 -16 3 -26 8 -7 17 -10 21 -6 3 3 0 10 -8 15
-10 7 -11 10 -2 10 6 0 12 5 12 10 0 14 -13 12 -26 -3z"/>
<path d="M2321 2173 c0 -4 4 -17 8 -28 6 -15 2 -24 -18 -39 -14 -10 -19 -16
-10 -13 9 3 22 0 28 -6 10 -9 15 -8 26 6 11 15 11 23 -2 47 -14 29 -34 49 -32
33z"/>
<path d="M2775 2160 c3 -5 11 -10 16 -10 6 0 7 5 4 10 -3 6 -11 10 -16 10 -6
0 -7 -4 -4 -10z"/>
<path d="M2840 2115 c0 -18 41 -37 54 -25 11 10 -2 32 -15 25 -5 -4 -9 -1 -9
4 0 6 -7 11 -15 11 -8 0 -15 -7 -15 -15z"/>
<path d="M2596 2097 c-9 -35 35 -52 53 -19 12 23 2 38 -26 39 -14 1 -23 -6
-27 -20z"/>
<path d="M2800 2029 c0 -5 5 -7 10 -4 6 3 10 8 10 11 0 2 -4 4 -10 4 -5 0 -10
-5 -10 -11z"/>
<path d="M5185 1700 c3 -5 10 -10 16 -10 5 0 9 5 9 10 0 6 -7 10 -16 10 -8 0
-12 -4 -9 -10z"/>
<path d="M5231 1703 c-1 -6 -4 -18 -7 -27 -4 -11 -1 -16 10 -16 18 0 19 6 6
35 -5 11 -9 15 -9 8z"/>
<path d="M5180 1631 c0 -22 3 -42 8 -45 4 -2 7 15 7 40 0 24 -3 44 -7 44 -5 0
-8 -18 -8 -39z"/>
<path d="M5205 1651 c-8 -14 6 -71 16 -65 5 3 5 13 -1 24 -13 25 -13 30 5 30
17 0 39 -36 30 -50 -3 -6 -2 -10 3 -10 17 0 21 12 10 35 -11 25 -54 49 -63 36z"/>
<path d="M5243 1541 c-3 -11 -9 -18 -14 -15 -14 8 -11 -2 12 -41 12 -20 24
-33 27 -30 3 3 0 11 -6 17 -18 18 -15 26 11 30 32 4 31 52 -1 56 -17 3 -25 -2
-29 -17z m35 -27 c-10 -10 -28 6 -28 24 0 15 1 15 17 -1 9 -9 14 -19 11 -23z"/>
<path d="M5310 1444 c0 -11 -6 -15 -20 -11 -11 3 -20 0 -20 -5 0 -6 -6 -5 -15
2 -10 9 -15 9 -15 1 0 -6 6 -11 13 -11 8 0 7 -4 -3 -10 -8 -5 -10 -10 -4 -10
6 0 14 3 18 7 4 4 23 6 43 4 30 -2 35 0 29 14 -3 9 -6 21 -6 26 0 5 -4 9 -10
9 -5 0 -10 -7 -10 -16z"/>
<path d="M5300 1379 c0 -5 -4 -7 -10 -4 -11 7 -14 -8 -3 -18 7 -8 33 11 33 24
0 5 -4 9 -10 9 -5 0 -10 -5 -10 -11z"/>
<path d="M5342 1370 c7 -10 8 -23 4 -27 -5 -4 -11 -2 -13 5 -3 6 -9 10 -14 6
-18 -10 -9 -22 21 -26 17 -3 30 -1 30 3 0 19 -20 59 -30 59 -6 0 -6 -7 2 -20z"/>
<path d="M5538 749 c-17 -18 -17 -19 11 -19 24 0 28 3 24 20 -6 24 -13 24 -35
-1z"/>
<path d="M5680 440 c0 -3 4 -20 9 -37 8 -27 6 -35 -7 -43 -15 -8 -14 -9 6 -10
16 0 22 6 22 23 -1 18 -29 83 -30 67z"/>
<path d="M5666 395 c4 -8 8 -15 10 -15 2 0 4 7 4 15 0 8 -4 15 -10 15 -5 0 -7
-7 -4 -15z"/>
<path d="M5610 372 c0 -4 6 -14 12 -20 10 -10 10 -15 -2 -22 -12 -8 -10 -10 8
-10 17 0 22 6 22 24 0 13 -7 27 -16 30 -21 8 -24 8 -24 -2z"/>
<path d="M5565 191 c-3 -5 -1 -12 5 -16 5 -3 10 1 10 9 0 18 -6 21 -15 7z"/>
<path d="M5560 150 c0 -5 5 -10 11 -10 5 0 7 5 4 10 -3 6 -8 10 -11 10 -2 0
-4 -4 -4 -10z"/>
</g>
</svg>
